{"glyphs":{"0":{"ha":636,"x_min":0,"x_max":0,"o":"m 355 879 b 319 882 346 881 334 882 b 195 835 286 882 237 874 b 51 301 61 709 7 509 b 317 0 80 162 167 0 b 338 1 324 0 331 0 b 597 405 505 16 589 215 b 355 879 606 617 526 848 z m 194 207 b 249 738 128 347 134 600 b 320 770 267 760 302 770 b 391 735 345 770 369 758 b 484 412 457 666 488 518 b 457 263 482 363 473 311 b 414 166 447 229 433 197 b 316 106 382 126 351 106 b 194 207 268 106 224 142 z "},"1":{"ha":283,"x_min":0,"x_max":0,"o":"m 208 855 b 139 882 191 872 167 882 b 86 881 139 882 90 881 b 22 822 44 881 24 850 b 74 759 21 794 38 763 b 123 753 93 757 112 754 l 104 35 b 113 10 103 26 107 17 b 137 0 120 4 128 0 l 175 0 b 209 34 194 0 209 15 b 220 365 210 106 213 237 b 235 784 226 491 232 682 b 208 855 236 811 226 836 z "},"2":{"ha":629,"x_min":0,"x_max":0,"o":"m 575 124 b 408 146 534 138 478 146 b 153 120 301 146 191 128 b 351 345 167 155 211 233 b 552 712 460 433 582 553 b 288 882 532 820 436 882 b 109 827 221 882 157 863 b 93 766 90 813 83 787 l 99 755 b 143 727 107 738 124 727 b 169 734 152 727 161 729 b 312 780 212 762 267 780 b 417 744 358 780 394 767 b 407 559 465 694 436 604 b 258 409 368 500 314 455 b 201 360 238 392 219 376 b 31 12 100 267 -29 99 b 66 -3 38 2 50 -3 b 100 2 78 -3 91 0 l 106 4 b 323 31 181 22 254 31 b 544 15 385 31 499 26 b 555 14 548 14 551 14 b 600 48 576 14 595 28 l 605 67 b 575 124 612 91 599 115 z "},"3":{"ha":653,"x_min":0,"x_max":0,"o":"m 619 317 b 473 498 603 429 512 481 b 537 756 508 529 592 621 b 379 873 508 825 455 865 b 352 874 370 874 361 874 b 155 815 288 874 216 853 b 135 785 144 809 137 798 b 144 751 133 773 137 761 l 155 739 b 187 724 163 730 175 724 b 209 730 195 724 202 726 b 346 774 255 758 305 774 b 360 774 351 774 356 774 b 462 688 413 768 451 735 b 309 510 478 614 395 538 l 299 507 l 316 458 l 323 457 b 500 343 414 445 472 408 b 468 175 522 291 511 229 b 291 104 445 146 369 104 b 269 105 283 104 276 104 b 149 186 215 110 173 139 b 142 239 143 198 140 218 b 102 304 144 267 130 292 b 77 309 94 307 86 309 b 17 257 46 309 20 287 b 45 123 11 207 21 162 b 264 2 86 57 168 12 b 303 0 277 1 290 0 b 477 44 366 0 426 15 b 619 317 601 117 632 233 z "},"4":{"ha":575,"x_min":0,"x_max":0,"o":"m 541 307 b 503 322 532 316 519 322 b 502 322 502 322 502 322 b 465 318 487 321 474 319 l 472 631 b 459 677 473 651 468 666 b 429 689 448 688 434 689 b 429 689 429 689 429 689 b 386 646 406 689 390 673 b 357 309 373 558 360 353 b 261 299 336 306 281 299 b 143 340 204 299 164 313 b 129 431 125 362 120 393 b 374 791 134 452 228 590 b 381 836 383 804 386 821 b 350 870 377 852 365 864 b 332 873 344 872 338 873 b 289 851 315 873 299 865 b 214 743 265 816 232 768 b 72 533 166 674 117 604 b 34 310 18 446 6 373 b 262 192 78 213 182 192 b 336 198 286 192 311 194 l 354 201 l 354 183 b 352 107 354 154 353 129 b 350 54 351 88 350 71 b 365 16 350 39 355 26 b 403 0 375 6 389 0 b 442 16 418 0 432 6 b 457 55 452 27 457 40 b 463 217 455 107 461 191 b 511 224 473 219 491 222 b 555 271 535 227 554 246 b 541 307 555 284 550 297 z "},"5":{"ha":568,"x_min":0,"x_max":0,"o":"m 382 567 b 344 571 370 570 357 571 b 198 534 295 571 246 553 l 146 515 l 148 546 b 177 731 153 603 170 689 l 180 744 l 190 747 b 383 765 244 763 343 765 b 429 764 398 765 414 764 b 483 807 454 764 476 781 b 473 855 487 824 483 841 b 431 877 463 868 448 876 b 410 877 424 877 417 877 b 226 870 324 877 262 875 b 205 868 220 869 214 868 b 112 837 171 864 133 860 b 48 463 62 781 42 564 b 94 412 51 418 78 412 b 119 416 104 412 113 414 b 163 431 130 419 145 425 b 336 480 218 450 302 480 b 433 408 382 480 416 455 b 396 194 457 343 441 248 b 245 110 364 155 305 110 b 138 185 218 110 169 119 b 92 215 129 203 111 215 b 81 214 89 215 86 215 b 46 186 66 211 53 201 b 46 138 38 171 38 153 b 236 18 99 34 188 18 b 531 272 360 18 508 120 b 382 567 553 413 487 543 z "},"6":{"ha":571,"x_min":0,"x_max":0,"o":"m 528 422 b 325 560 496 514 427 560 b 227 548 294 560 261 556 l 194 540 l 208 571 b 345 776 237 639 288 714 b 371 863 399 833 372 862 b 331 882 362 875 347 882 b 296 869 318 882 306 878 b 40 209 118 716 4 420 b 263 0 62 84 151 0 b 436 78 325 0 386 28 b 528 422 536 178 570 304 z m 328 120 b 265 105 306 110 285 105 b 185 144 234 105 206 119 b 144 365 140 198 132 296 b 153 406 147 379 150 393 l 159 418 l 170 422 b 320 463 214 440 269 463 b 428 399 369 463 406 441 b 431 247 450 357 451 300 b 328 120 416 207 374 141 z "},"7":{"ha":583,"x_min":0,"x_max":0,"o":"m 500 850 b 450 877 488 866 470 876 b 263 882 391 880 325 882 b 121 878 207 882 158 881 b 70 825 94 876 72 854 b 84 782 68 809 74 793 b 126 763 95 770 110 763 b 134 764 129 763 131 763 b 402 778 183 771 350 776 b 131 68 367 689 183 217 b 134 28 126 54 127 40 b 165 2 140 15 152 6 b 179 0 170 1 174 0 b 227 35 201 0 220 14 b 431 573 263 143 360 392 b 505 766 471 676 500 751 b 513 796 508 775 510 785 b 500 850 517 815 512 834 z "},"8":{"ha":550,"x_min":0,"x_max":0,"o":"m 397 463 l 388 473 l 397 483 b 480 808 435 527 552 680 b 326 883 453 855 396 883 b 188 840 274 883 222 867 b 119 709 144 805 121 761 b 231 489 117 636 161 549 l 245 476 l 230 465 b 28 156 119 384 13 294 b 241 -18 41 28 151 -18 b 453 77 325 -18 406 19 b 397 463 544 193 526 319 z m 146 123 b 138 231 133 142 121 175 b 289 391 163 309 230 353 l 322 413 l 331 405 b 405 234 368 369 415 313 b 229 87 393 143 304 87 b 146 123 193 87 164 100 z m 263 772 b 327 787 278 782 303 787 b 380 772 343 787 365 785 b 408 721 397 759 406 741 b 330 556 413 666 367 600 l 313 546 l 299 558 b 217 704 279 576 211 639 b 263 772 219 724 228 751 z "},"9":{"ha":571,"x_min":0,"x_max":0,"o":"m 530 673 b 308 882 509 798 419 882 b 135 805 246 882 184 855 b 42 461 34 704 1 579 b 246 322 75 369 143 322 b 344 335 276 322 309 326 l 376 343 l 363 312 b 225 107 333 243 283 168 b 199 20 171 49 199 20 b 240 0 209 7 224 0 b 275 13 252 0 265 5 b 530 673 452 167 567 463 z m 139 635 b 243 762 155 676 197 742 b 305 777 265 772 286 777 b 385 739 337 777 364 764 b 426 517 431 685 438 586 b 418 476 424 504 420 489 l 412 464 l 401 460 b 250 419 356 442 301 419 b 143 483 202 419 165 441 b 139 635 121 526 119 583 z "},"\u0000":{"ha":0,"x_min":0,"x_max":0,"o":""},"\n":{"ha":0,"x_min":0,"x_max":0,"o":""},"\r":{"ha":0,"x_min":0,"x_max":0,"o":""}," ":{"ha":378,"x_min":0,"x_max":0,"o":""},"!":{"ha":211,"x_min":0,"x_max":0,"o":"m 137 168 b 167 800 137 168 155 632 b 95 865 170 840 134 872 b 43 800 63 860 41 832 l 73 168 l 137 168 z m 105 0 b 148 43 129 0 148 19 b 105 86 148 67 129 86 b 62 43 81 86 62 67 b 105 0 62 19 81 0 z "},"\"":{"ha":318,"x_min":0,"x_max":0,"o":"m 88 903 l 62 903 b 28 861 43 903 27 884 l 38 662 b 71 624 39 641 53 624 b 107 661 90 624 105 639 l 122 860 b 88 903 124 883 108 903 z m 254 903 l 229 903 b 194 861 209 903 193 884 l 204 662 b 238 624 205 641 220 624 b 274 661 256 624 272 639 l 289 860 b 254 903 291 883 275 903 z "},"#":{"ha":600,"x_min":0,"x_max":0,"o":"m 358 1 b 406 46 382 3 401 22 l 429 178 l 513 177 b 558 238 545 177 568 208 b 558 239 558 238 558 239 b 511 272 551 259 532 273 l 446 270 l 466 383 l 569 387 l 571 418 b 514 459 562 442 540 458 l 480 459 l 509 624 b 491 625 506 624 500 625 b 432 615 466 625 440 619 l 397 460 l 260 462 b 300 621 260 462 303 617 l 220 621 b 193 594 207 621 195 610 l 170 463 l 82 464 b 36 403 50 464 27 433 b 37 402 36 402 37 402 b 83 369 43 382 62 368 l 153 371 l 133 258 l 57 255 b 29 227 42 255 30 243 l 34 183 l 120 182 l 90 1 l 120 1 b 166 39 142 1 162 17 l 200 181 l 334 179 l 295 3 b 358 1 295 3 349 0 z m 379 380 l 354 266 l 214 261 l 238 374 z "},"$":{"ha":454,"x_min":0,"x_max":0,"o":"m 200 802 b 257 819 218 812 237 818 b 364 777 292 820 328 807 b 390 769 374 770 383 769 b 420 786 403 770 415 777 b 415 817 425 797 420 809 b 274 884 388 860 328 881 l 275 936 b 218 919 275 971 218 974 l 219 880 b 211 879 216 879 213 879 b 50 680 141 860 57 810 b 183 409 44 578 119 476 b 299 131 322 263 315 172 b 222 72 285 97 255 74 b 194 77 212 72 203 74 b 92 186 153 96 116 135 b 67 203 86 198 78 204 b 35 184 55 203 42 195 b 34 153 29 174 29 164 b 220 4 67 83 137 12 l 221 -64 b 272 -48 221 -99 272 -104 l 273 8 b 373 79 312 18 347 42 b 407 252 408 129 421 195 b 277 464 387 334 334 397 b 237 512 264 480 250 496 b 155 651 212 544 177 594 b 200 802 126 726 167 783 z "},"%":{"ha":990,"x_min":0,"x_max":0,"o":"m 417 670 b 219 909 417 788 349 909 b 21 669 89 909 21 788 b 219 431 21 554 83 431 b 417 670 349 431 417 551 z m 100 670 b 219 837 100 779 160 837 b 341 676 278 837 341 786 b 219 504 341 558 278 504 b 100 670 155 504 100 582 z m 771 478 b 573 238 641 478 573 357 b 771 0 573 123 635 0 b 969 239 901 0 969 120 b 771 478 969 358 901 478 z m 771 73 b 652 239 708 73 652 151 b 771 406 652 348 712 406 b 894 245 830 406 894 355 b 771 73 894 127 830 73 z m 807 895 b 783 909 802 903 793 909 l 747 909 b 724 896 738 909 729 904 l 195 68 b 194 41 190 60 189 49 b 218 26 199 32 208 26 l 253 26 b 276 39 262 26 271 31 l 806 867 b 807 895 811 875 811 886 z "},"&":{"ha":661,"x_min":0,"x_max":0,"o":"m 623 68 b 567 115 602 84 578 105 b 647 227 598 149 624 188 b 580 259 672 268 605 300 b 514 166 561 227 539 195 b 422 272 482 200 454 232 b 307 439 380 325 341 381 b 377 510 332 461 355 485 b 475 733 428 570 483 651 b 400 845 470 779 441 823 b 214 816 353 869 271 869 b 158 457 126 733 97 579 b 172 428 163 448 168 438 b 27 158 90 361 6 266 b 303 -2 50 33 195 -3 b 467 38 360 -1 417 12 b 570 -43 497 7 531 -27 b 623 68 642 -75 690 16 z m 294 772 b 398 741 334 797 385 780 b 376 637 409 706 392 667 b 271 506 350 588 313 544 b 255 549 265 520 259 535 b 294 772 210 695 273 759 z m 256 74 b 101 164 198 80 120 100 b 173 329 84 223 135 290 b 208 361 184 341 196 351 b 413 94 265 265 336 176 b 256 74 363 75 308 69 z "},"'":{"ha":151,"x_min":0,"x_max":0,"o":"m 88 903 l 62 903 b 28 861 42 903 27 884 l 38 662 b 71 624 39 641 53 624 b 107 661 90 624 105 639 l 122 860 b 88 903 124 883 108 903 z "},"(":{"ha":465,"x_min":0,"x_max":0,"o":"m 403 -140 b 154 429 317 -46 154 166 b 410 997 154 655 328 896 l 352 996 b 294 973 330 996 309 988 b 35 430 216 892 35 678 b 268 -102 35 145 181 -26 b 369 -140 296 -126 331 -140 z "},")":{"ha":471,"x_min":0,"x_max":0,"o":"m 118 -139 b 175 -115 140 -139 160 -131 b 435 427 253 -35 435 179 b 201 959 435 712 288 883 b 100 997 174 983 138 997 l 66 997 b 316 429 152 903 316 691 b 56 -140 316 198 135 -47 z "},"*":{"ha":375,"x_min":0,"x_max":0,"o":"m 352 811 l 343 837 b 326 850 341 844 334 850 b 318 848 323 850 320 849 l 255 818 l 246 815 l 242 815 b 218 826 233 815 224 819 b 210 850 212 832 209 841 l 219 920 b 215 934 220 925 218 930 b 201 941 211 939 206 941 l 174 941 b 160 934 169 941 164 939 b 156 920 157 930 155 925 l 164 850 b 157 826 166 841 163 832 b 133 815 151 819 142 815 l 124 816 l 57 848 b 49 850 55 849 52 850 b 32 837 41 850 34 844 l 23 811 b 25 796 21 806 22 801 b 37 787 27 792 32 788 l 105 773 b 128 751 116 770 125 762 b 121 720 132 740 129 729 l 75 672 b 70 657 71 668 70 663 b 78 644 71 652 73 647 l 99 628 b 110 625 102 626 106 625 b 126 634 117 625 123 628 l 160 694 b 187 710 166 704 176 710 b 215 694 199 710 209 704 l 249 634 b 265 625 252 628 258 625 b 276 628 269 625 273 626 l 297 644 b 305 657 302 647 304 652 b 300 672 305 663 304 668 l 254 720 b 246 751 246 728 243 740 b 270 773 250 762 259 770 l 338 787 b 350 796 343 788 347 792 b 352 811 353 801 353 806 z "},"+":{"ha":576,"x_min":0,"x_max":0,"o":"m 552 445 b 523 458 544 453 534 458 l 341 458 b 331 467 336 458 331 462 l 331 649 b 319 678 331 660 327 670 b 286 690 311 686 300 690 b 245 649 263 690 245 671 l 245 470 b 232 458 245 463 239 458 l 54 458 b 25 445 43 458 32 453 b 13 412 17 437 13 425 b 25 383 12 401 17 391 b 54 371 32 375 43 371 l 236 371 b 245 362 241 371 245 367 l 245 180 b 257 151 245 169 249 159 b 290 139 265 143 276 139 b 331 180 313 139 331 157 l 331 358 b 344 371 331 365 337 371 l 522 371 b 564 416 546 371 564 391 b 552 445 564 427 559 438 z "},",":{"ha":128,"x_min":0,"x_max":0,"o":"m 75 111 b 27 111 62 123 40 124 b 27 63 15 97 14 76 b 32 58 29 61 31 59 b 32 58 32 58 32 58 b 33 57 33 57 32 58 b 36 52 34 55 35 54 b 38 49 37 51 37 50 b 36 51 39 46 38 47 b 41 38 39 50 40 41 b 42 33 41 38 42 34 b 42 31 42 32 42 32 b 41 3 42 22 42 13 b 41 2 41 3 41 3 b 41 2 41 2 41 2 b 40 -5 40 0 40 -3 b 36 -20 39 -10 38 -15 b 19 -73 32 -38 26 -56 b 19 -73 19 -73 19 -73 b 17 -78 18 -75 17 -76 b 12 -88 15 -81 14 -84 b 5 -102 10 -92 8 -97 b 18 -148 -2 -118 0 -139 b 64 -136 33 -156 56 -153 b 104 -31 80 -102 95 -67 b 75 111 114 18 114 74 z "},"-":{"ha":342,"x_min":0,"x_max":0,"o":"m 282 434 l 59 434 b 15 391 35 434 15 415 b 59 348 15 367 35 348 l 282 348 b 325 391 306 348 325 367 b 282 434 325 415 306 434 z "},".":{"ha":117,"x_min":0,"x_max":0,"o":"m 58 86 b 15 43 34 86 15 67 b 58 1 15 20 34 1 b 100 43 81 1 100 20 b 58 86 100 67 81 86 z "},"/":{"ha":360,"x_min":0,"x_max":0,"o":"m 40 0 l 82 0 b 112 23 96 0 108 9 l 350 865 b 344 892 352 875 350 885 b 319 905 338 900 329 905 l 277 905 b 247 882 263 905 251 895 l 10 40 b 15 12 7 30 9 20 b 40 0 21 5 30 0 z "},":":{"ha":131,"x_min":0,"x_max":0,"o":"m 65 86 b 22 43 41 86 22 67 b 65 1 22 20 41 1 b 107 43 88 1 107 20 b 65 86 107 67 88 86 z m 65 402 b 107 444 88 402 107 421 b 65 487 107 468 88 487 b 22 444 41 487 22 468 b 65 402 22 421 41 402 z "},";":{"ha":139,"x_min":0,"x_max":0,"o":"m 81 111 b 33 111 68 123 45 124 b 33 63 21 97 19 76 b 38 58 35 61 36 59 b 38 58 38 58 38 58 b 38 57 38 57 38 58 b 42 52 39 55 41 54 b 43 49 42 51 43 50 b 42 51 44 46 44 47 b 46 38 44 50 46 41 b 47 33 46 38 47 34 b 47 31 47 32 47 32 b 47 3 48 22 48 13 b 47 2 47 3 47 3 b 47 2 47 2 47 2 b 45 -5 46 0 46 -3 b 42 -20 44 -10 43 -15 b 24 -73 38 -38 31 -56 b 24 -73 24 -73 24 -73 b 22 -78 24 -75 23 -76 b 18 -88 21 -81 19 -84 b 11 -102 16 -92 13 -97 b 23 -148 3 -118 6 -139 b 69 -136 38 -156 61 -153 b 109 -31 86 -102 101 -67 b 81 111 120 18 119 74 z m 70 401 b 112 443 93 401 112 420 b 70 486 112 466 93 486 b 27 443 46 486 27 466 b 70 401 27 420 46 401 z "},"=":{"ha":606,"x_min":0,"x_max":0,"o":"m 66 538 l 539 538 b 583 581 563 538 583 557 b 539 624 583 605 563 624 l 66 624 b 22 581 42 624 22 605 b 66 538 22 557 42 538 z m 539 364 l 66 364 b 22 321 42 364 22 344 b 66 277 22 297 42 277 l 539 277 b 583 321 563 277 583 297 b 539 364 583 344 563 364 z "},"?":{"ha":499,"x_min":0,"x_max":0,"o":"m 455 725 b 221 867 414 849 290 867 b 36 828 157 867 90 852 b 8 782 18 820 8 802 b 9 779 8 781 8 780 b 77 736 10 745 45 723 b 223 769 119 753 173 769 b 365 685 291 769 340 740 b 244 389 432 534 291 424 b 93 158 154 319 97 256 b 121 157 99 157 108 157 b 170 161 142 157 160 159 b 314 351 177 246 250 301 b 415 444 355 382 392 411 b 455 725 477 539 490 623 z m 133 1 b 176 44 156 1 176 20 b 133 87 176 67 156 87 b 90 44 109 87 90 67 b 133 1 90 20 109 1 z "},"@":{"ha":1156,"x_min":0,"x_max":0,"o":"m 1118 501 b 615 898 1088 760 864 905 b 76 528 381 891 164 746 b 134 -27 3 347 25 136 b 812 -217 288 -257 562 -287 b 792 -143 860 -203 840 -129 b 239 -38 599 -197 383 -195 b 112 359 143 68 98 218 b 498 805 135 573 291 750 b 1017 596 692 857 937 797 b 999 232 1061 483 1054 340 b 821 87 961 157 897 109 b 832 526 822 234 827 380 b 768 590 833 561 801 590 b 704 526 732 590 705 561 b 704 525 704 526 704 526 b 538 572 658 562 597 581 b 356 396 445 558 386 476 b 356 109 323 307 315 196 b 568 3 393 29 479 -13 b 693 82 620 12 661 43 b 693 58 693 74 693 66 b 695 40 693 51 694 45 b 732 -2 693 19 705 -3 b 741 -2 735 -2 738 -2 b 783 1 755 -5 770 -4 b 1022 128 875 13 962 53 b 1118 501 1105 229 1133 374 z m 692 229 b 543 84 673 177 606 76 b 442 324 475 93 421 152 b 543 497 449 385 482 469 b 693 421 598 521 670 482 b 700 409 695 416 697 412 b 695 235 698 351 697 293 b 692 229 694 233 693 231 z "},"A":{"ha":719,"x_min":0,"x_max":0,"o":"m 675 385 b 636 385 662 385 649 385 b 397 972 586 665 511 973 b 252 867 328 972 283 922 b 94 378 169 720 132 542 b 41 378 76 378 59 378 b 41 301 -8 377 -8 301 b 77 301 53 301 65 301 b 32 86 61 230 46 158 b 155 51 16 5 139 -29 b 208 303 172 135 189 219 b 568 307 328 304 448 306 b 620 -1 588 197 605 89 b 694 20 628 -49 702 -29 b 649 308 682 88 668 193 b 675 308 657 308 666 308 b 675 385 724 309 724 386 z m 226 380 b 289 616 244 459 265 538 b 358 789 311 688 324 722 b 452 776 383 839 424 840 b 554 384 490 686 524 538 b 226 380 444 382 335 381 z "},"B":{"ha":668,"x_min":0,"x_max":0,"o":"m 592 450 b 497 522 565 482 533 505 b 550 558 516 532 534 544 b 596 787 617 617 635 708 b 196 965 529 928 351 974 b 108 953 170 982 130 978 b 70 944 95 951 82 948 b 90 870 22 930 42 857 b 84 155 76 631 75 393 b 69 161 82 156 71 160 b 40 91 36 177 -4 115 b 87 68 55 83 76 73 b 205 30 91 5 175 -16 b 615 177 362 -4 534 23 b 592 450 661 265 657 372 z m 535 194 b 214 105 462 88 332 76 b 219 889 202 367 203 628 b 508 785 327 893 443 866 b 492 609 554 728 549 655 b 330 557 446 572 388 561 b 278 555 313 557 295 557 b 278 478 230 550 227 477 b 327 481 294 479 310 480 b 525 410 399 481 473 464 b 535 194 582 350 581 261 z "},"C":{"ha":581,"x_min":0,"x_max":0,"o":"m 526 98 b 196 428 332 45 196 216 b 375 862 196 634 246 780 b 532 883 423 892 514 883 b 548 959 591 882 597 947 b 211 896 409 992 285 948 b 23 446 65 793 17 604 b 368 10 37 67 278 20 b 556 30 432 4 497 -1 b 526 98 598 53 583 114 z "},"D":{"ha":729,"x_min":0,"x_max":0,"o":"m 527 895 b 215 947 432 960 321 970 b 94 914 188 994 99 982 b 94 908 94 912 94 910 b 43 882 76 900 59 891 b 81 816 -1 858 38 792 b 90 820 84 817 87 818 b 87 137 79 592 78 365 b 72 142 82 138 77 140 b 52 68 25 156 5 82 b 92 55 65 63 78 59 b 203 24 103 2 173 -9 b 360 20 254 14 305 10 b 647 247 484 43 590 137 b 527 895 752 454 731 754 z m 361 99 b 217 99 312 86 264 89 b 220 871 205 357 206 613 b 461 845 301 890 385 887 b 627 584 555 793 611 688 b 361 99 658 392 565 153 z "},"E":{"ha":597,"x_min":0,"x_max":0,"o":"m 563 68 b 195 68 440 68 318 68 b 189 549 191 228 188 388 b 442 549 273 549 358 549 b 442 626 492 549 492 626 b 189 626 358 626 273 626 b 195 899 190 717 192 808 b 520 899 303 899 412 899 b 520 976 569 899 570 976 b 167 976 402 976 285 976 b 100 976 147 987 121 987 b 70 976 90 976 80 976 b 67 900 22 976 21 904 b 67 52 57 618 59 334 b 143 -9 69 7 108 -14 b 563 -9 283 -9 423 -9 b 563 68 612 -9 613 68 z "},"F":{"ha":543,"x_min":0,"x_max":0,"o":"m 511 976 b 179 976 400 976 289 976 b 111 976 159 987 132 987 b 61 976 95 976 78 976 b 61 899 11 976 11 899 l 79 52 b 207 52 81 -30 209 -31 b 200 549 202 217 200 383 b 454 549 285 549 369 549 b 454 626 503 549 503 626 b 201 626 369 626 285 626 b 198 901 201 717 198 901 b 511 899 299 901 409 899 b 511 976 560 899 560 976 z "},"G":{"ha":746,"x_min":0,"x_max":0,"o":"m 671 462 b 454 456 606 462 520 456 b 455 377 385 456 382 377 b 635 383 491 377 603 382 b 645 375 641 383 645 380 b 443 89 649 326 644 86 b 196 428 284 90 196 241 b 375 862 196 634 244 798 b 532 883 426 887 514 883 b 548 959 591 882 597 947 b 211 896 409 992 285 948 b 23 446 65 793 17 604 b 408 7 37 67 318 7 b 738 399 639 7 738 159 b 671 462 738 420 738 462 z "},"H":{"ha":818,"x_min":0,"x_max":0,"o":"m 759 524 b 750 524 756 524 750 524 b 744 696 749 582 747 639 b 723 874 741 755 738 817 b 599 840 701 954 586 922 b 622 524 624 690 621 579 b 211 524 485 524 348 524 b 244 885 216 645 227 766 b 199 964 249 920 236 954 b 120 919 169 972 125 954 b 81 524 102 790 87 657 b 61 524 74 524 67 524 b 61 448 11 524 11 448 b 78 448 66 448 72 448 b 100 66 75 319 68 177 b 179 21 110 32 148 13 b 223 100 215 31 228 65 b 209 448 202 259 208 425 b 623 448 347 448 485 448 b 605 85 623 445 627 219 b 599 60 604 77 602 68 b 723 26 574 -18 697 -52 b 744 191 739 78 740 137 b 750 448 749 274 750 445 b 759 448 753 448 756 448 b 759 524 809 448 809 524 z "},"I":{"ha":242,"x_min":0,"x_max":0,"o":"m 196 60 b 187 129 194 65 188 114 b 182 242 184 167 183 205 b 180 533 179 339 179 436 b 187 906 181 657 183 782 b 59 906 189 988 61 988 b 52 523 59 906 53 651 b 54 234 51 427 51 330 b 72 26 56 165 57 94 b 196 60 90 -54 214 -20 z "},"J":{"ha":413,"x_min":0,"x_max":0,"o":"m 236 910 b 233 399 236 910 235 522 b 229 221 231 340 230 280 b 160 89 228 165 220 102 b 65 144 91 73 73 124 b 18 171 58 164 36 176 b -9 124 -4 165 -12 145 b 63 29 -4 84 29 49 b 125 10 82 18 103 12 b 286 46 174 2 245 8 b 360 367 365 118 357 252 b 364 906 363 499 362 774 b 236 910 366 994 238 998 z "},"K":{"ha":644,"x_min":0,"x_max":0,"o":"m 640 43 b 463 347 621 161 546 264 b 246 515 398 411 324 467 b 394 623 301 542 351 583 b 559 831 457 683 516 754 b 593 925 575 859 593 891 b 518 928 594 974 533 975 b 436 784 503 883 458 813 b 255 609 386 719 325 655 b 182 572 230 593 207 581 b 202 906 187 684 195 795 b 74 906 208 988 80 988 b 58 58 55 624 34 340 b 186 58 65 -23 193 -24 b 177 468 174 194 173 331 b 268 409 208 449 239 430 b 494 192 353 349 434 278 b 566 22 529 141 556 84 b 613 -5 569 2 594 -10 b 640 43 635 1 643 22 z "},"L":{"ha":547,"x_min":0,"x_max":0,"o":"m 514 95 b 199 95 507 95 273 92 b 177 117 186 95 177 105 b 179 408 178 193 178 355 b 190 904 181 531 190 904 b 62 904 191 992 63 992 b 51 368 60 773 53 500 b 50 84 50 294 50 166 b 128 7 50 42 85 7 b 517 11 260 9 512 11 b 514 95 569 11 583 95 z "},"M":{"ha":813,"x_min":0,"x_max":0,"o":"m 758 541 b 729 932 755 670 758 806 b 655 932 720 971 666 966 b 506 598 617 817 571 700 b 400 519 486 567 440 490 b 345 604 374 538 358 576 b 223 922 326 644 251 847 b 102 921 203 978 117 988 b 50 490 71 779 58 634 b 48 58 41 346 37 202 b 176 58 55 -23 183 -24 b 177 477 166 197 169 338 b 204 763 182 572 190 668 b 234 675 214 734 223 704 b 362 452 261 600 292 499 b 662 737 507 357 623 645 b 675 769 667 747 671 758 b 682 529 681 689 680 607 b 685 42 686 367 686 205 b 762 42 685 -7 761 -7 b 758 541 762 209 762 375 z "},"N":{"ha":757,"x_min":0,"x_max":0,"o":"m 697 953 b 620 953 697 1002 620 1003 b 624 276 623 728 626 502 b 551 424 601 326 577 376 b 216 938 474 569 301 851 b 103 921 183 973 118 980 b 50 58 33 642 39 202 b 178 58 56 -23 184 -24 b 178 477 167 197 171 338 b 214 820 185 591 194 706 b 409 520 228 801 360 603 b 555 247 461 431 511 340 b 620 42 583 185 620 112 b 697 42 620 -7 696 -7 b 697 953 705 346 701 650 z "},"O":{"ha":878,"x_min":0,"x_max":0,"o":"m 446 970 b 21 481 250 970 21 835 b 421 8 21 136 282 8 b 857 531 639 8 856 170 b 446 970 857 730 742 970 z m 469 96 b 170 487 377 96 170 133 b 467 882 170 679 239 882 b 771 488 691 882 771 696 b 469 96 771 273 644 96 z "},"P":{"ha":664,"x_min":0,"x_max":0,"o":"m 618 879 b 365 968 559 954 456 976 b 245 947 325 964 284 957 b 128 908 213 989 127 976 b 23 857 92 893 56 876 b 64 788 -23 832 18 763 b 127 820 84 799 106 810 b 110 73 125 681 110 157 b 238 73 110 -10 238 -10 b 243 359 238 168 241 263 b 619 613 393 406 541 474 b 618 879 664 694 679 802 z m 546 650 b 246 444 471 521 294 459 b 256 866 250 584 255 725 b 538 846 273 870 447 928 b 546 650 596 794 581 710 z "},"Q":{"ha":907,"x_min":0,"x_max":0,"o":"m 889 36 b 837 49 878 55 856 58 b 748 88 804 34 767 64 b 719 133 737 102 728 117 b 857 531 801 218 856 349 b 446 970 857 730 742 970 b 21 481 250 970 21 835 b 421 8 21 136 282 8 b 660 82 505 8 588 32 b 742 -9 681 47 706 13 b 876 -17 784 -33 832 -38 b 889 36 894 -8 899 19 z m 676 201 b 574 277 650 236 617 266 b 433 257 526 290 476 279 b 419 205 414 248 409 222 b 471 191 430 186 453 182 b 582 190 506 208 549 214 b 621 147 598 179 610 164 b 469 96 577 115 526 96 b 170 487 377 96 170 133 b 467 882 170 679 239 882 b 771 489 691 882 771 696 b 676 201 771 375 735 273 z "},"R":{"ha":710,"x_min":0,"x_max":0,"o":"m 478 364 b 394 459 453 393 421 432 b 632 587 477 487 575 519 b 656 850 692 658 712 765 b 410 972 602 932 502 964 b 224 965 349 977 286 974 b 104 940 208 1014 108 1006 b 41 917 82 934 61 927 b 58 854 -2 898 20 842 b 103 868 82 862 103 868 l 103 472 b 46 458 103 472 59 461 b 55 386 3 449 8 379 b 103 395 62 387 103 395 l 103 97 b 231 81 103 -16 231 -16 b 234 411 231 163 234 411 l 311 435 b 604 27 387 367 521 208 b 683 52 628 -25 705 -9 b 478 364 649 148 560 269 z m 232 488 b 232 887 232 621 232 754 b 569 835 264 891 466 929 b 558 639 630 779 607 695 b 232 488 508 580 277 496 z "},"S":{"ha":463,"x_min":0,"x_max":0,"o":"m 439 896 b 258 970 405 951 322 973 b 215 964 243 969 228 967 b 38 746 138 943 36 889 b 184 448 39 614 112 534 b 312 143 327 278 330 188 b 227 78 296 105 263 80 b 197 84 216 78 206 80 b 84 204 151 104 110 148 b 57 222 78 216 69 222 b 22 201 43 221 29 213 b 21 167 15 190 15 179 b 248 2 59 84 147 -5 b 405 83 327 7 375 33 b 288 508 495 238 350 435 b 153 714 273 526 177 651 b 202 879 122 796 167 859 b 265 898 222 891 244 897 b 383 852 304 900 343 885 b 411 844 393 845 404 843 b 444 862 426 844 439 852 b 439 896 450 874 445 887 z "},"T":{"ha":619,"x_min":0,"x_max":0,"o":"m 597 968 b 368 968 521 968 445 968 b 257 968 349 1017 282 1008 b 22 968 178 968 100 968 b 22 891 -28 968 -28 891 b 252 891 98 891 175 891 b 257 777 252 884 256 808 b 259 529 259 695 259 612 b 246 80 258 380 256 230 b 374 80 241 -2 369 -2 b 387 540 385 233 386 387 b 381 891 388 654 394 775 b 597 891 453 891 525 891 b 597 968 646 891 646 968 z "},"U":{"ha":679,"x_min":0,"x_max":0,"o":"m 632 909 b 504 909 631 991 503 991 b 503 558 507 792 506 675 b 494 355 501 491 498 423 b 422 174 477 292 457 231 b 214 101 380 106 290 36 b 126 340 151 156 135 262 b 121 670 113 449 114 561 b 148 926 126 756 133 842 b 74 946 156 974 82 995 b 53 313 39 740 24 520 b 167 41 66 218 90 106 b 454 88 253 -31 434 19 b 499 13 444 56 470 21 b 578 57 535 2 565 25 b 616 272 604 124 609 201 b 631 549 625 364 629 457 b 632 909 634 669 635 789 z "},"V":{"ha":721,"x_min":0,"x_max":0,"o":"m 639 942 b 620 838 636 917 625 861 b 571 638 605 771 588 704 b 432 193 531 488 489 337 b 409 139 425 175 417 157 b 124 932 357 228 148 755 b 46 976 120 966 76 985 b 1 898 9 966 -4 932 b 325 29 25 717 255 134 b 444 45 359 -21 430 1 b 483 118 460 67 472 94 b 560 326 513 185 537 256 b 716 942 610 480 716 809 b 639 942 716 992 645 991 z "},"W":{"ha":878,"x_min":0,"x_max":0,"o":"m 847 895 b 763 878 845 955 759 950 b 612 129 779 635 681 113 b 510 538 542 146 535 432 b 395 540 495 602 419 602 b 252 188 364 463 287 260 b 189 222 226 135 195 140 b 244 895 177 379 238 783 b 171 968 246 935 209 968 b 98 895 130 968 100 935 b 177 -13 91 771 -76 -13 b 292 65 250 -13 275 31 b 440 460 325 128 428 427 b 637 19 440 460 461 2 b 847 895 800 34 858 642 z "},"X":{"ha":675,"x_min":0,"x_max":0,"o":"m 658 112 b 410 517 581 250 496 384 b 633 834 486 622 561 727 b 560 877 664 880 590 922 b 360 594 495 781 428 687 b 142 929 305 678 160 901 b 19 857 92 1005 -31 934 b 269 468 103 728 186 598 b 28 130 187 356 106 245 b 101 87 -4 85 71 42 b 318 391 172 190 245 290 b 434 207 357 330 396 269 b 535 40 468 152 503 97 b 658 112 580 -40 703 32 z "},"Y":{"ha":625,"x_min":0,"x_max":0,"o":"m 616 937 b 564 966 612 959 584 972 b 534 917 541 960 531 939 b 533 917 533 918 533 918 b 336 545 528 783 486 545 b 153 902 156 545 136 804 b 103 990 159 940 143 979 b 15 940 69 999 22 978 b 75 573 -6 815 4 682 b 184 463 104 529 140 491 b 260 430 205 450 257 431 b 245 63 260 427 247 141 b 388 63 243 -29 386 -29 b 404 431 389 143 398 375 b 616 855 588 517 599 717 b 616 937 620 888 622 903 z "},"Z":{"ha":658,"x_min":0,"x_max":0,"o":"m 621 948 b 579 957 607 956 592 959 b 137 966 431 957 284 962 b 137 880 82 967 82 882 b 489 873 255 877 372 874 b 11 116 319 628 178 363 b 80 9 -22 68 -2 9 b 588 9 250 9 419 9 b 588 94 643 9 643 94 b 166 94 448 94 307 94 b 647 850 330 343 472 608 b 621 948 669 882 652 930 z "},"[":{"ha":292,"x_min":0,"x_max":0,"o":"m 214 -137 b 246 -48 227 -131 248 -71 b 219 -49 239 -49 229 -49 l 151 -49 l 151 -32 b 149 425 155 38 152 235 b 146 856 146 597 144 774 l 146 870 l 161 871 b 202 873 177 871 190 872 b 245 874 216 874 230 874 b 255 874 248 874 252 874 b 280 931 261 877 274 900 b 282 966 284 953 282 964 b 209 963 257 966 233 965 b 130 961 183 962 157 961 b 102 961 121 961 112 961 b 59 914 76 961 62 938 b 57 400 51 854 54 623 b 57 -93 60 179 63 -29 b 65 -118 55 -104 61 -113 b 103 -137 74 -129 89 -136 b 160 -139 122 -138 141 -139 b 214 -137 179 -139 198 -138 z "},"]":{"ha":292,"x_min":0,"x_max":0,"o":"m 188 -137 b 225 -118 202 -136 216 -129 b 234 -93 230 -113 235 -104 b 233 400 227 -29 230 179 b 232 914 236 623 239 854 b 187 961 229 938 214 961 b 187 961 187 961 187 961 b 161 961 178 961 169 961 b 82 963 134 961 108 962 b 11 967 58 965 34 966 b 11 932 9 965 6 953 b 31 875 17 900 30 877 b 89 873 55 875 71 874 b 130 871 101 872 114 871 l 145 870 l 145 856 b 142 425 147 775 145 597 b 139 -32 139 235 136 39 l 135 -49 l 72 -49 b 45 -48 61 -49 51 -49 b 74 -137 43 -70 64 -131 b 131 -139 93 -138 112 -139 b 188 -137 150 -139 168 -138 z "},"_":{"ha":806,"x_min":0,"x_max":0,"o":"m 684 -52 l 96 -56 b 120 -135 42 -56 34 -135 l 709 -139 b 684 -52 764 -139 768 -52 z "},"a":{"ha":568,"x_min":0,"x_max":0,"o":"m 465 620 b 401 555 397 620 401 555 b 235 602 355 591 294 610 b 53 425 142 588 83 506 b 53 138 20 337 12 226 b 264 32 90 58 176 17 b 390 111 317 41 358 72 b 389 88 390 103 389 96 b 517 88 389 5 517 5 b 529 556 518 244 523 400 b 465 620 530 590 498 620 z m 393 300 b 364 188 392 261 383 222 b 240 114 342 151 304 114 b 139 354 171 114 118 182 b 240 526 146 415 178 499 b 397 438 294 551 391 518 b 393 300 395 392 394 346 z "},"b":{"ha":585,"x_min":0,"x_max":0,"o":"m 328 604 b 191 571 272 611 226 592 b 213 805 197 649 205 727 b 149 869 217 839 181 869 b 64 805 112 869 67 840 b 52 85 39 567 39 325 b 175 57 55 14 152 5 b 272 18 201 36 233 22 b 559 295 456 0 544 175 b 328 604 578 454 485 584 z m 448 289 b 325 107 437 207 393 132 b 176 179 233 75 193 137 b 183 462 175 273 177 368 b 213 495 191 474 201 486 b 392 495 263 536 343 537 b 448 289 448 447 459 366 z "},"c":{"ha":400,"x_min":0,"x_max":0,"o":"m 330 103 b 163 248 260 82 174 108 b 249 521 157 325 167 473 b 339 532 288 544 328 534 b 386 560 365 528 380 538 b 354 610 391 578 385 603 b 144 571 267 631 190 603 b 27 291 53 507 33 389 b 91 86 23 218 38 140 b 242 20 131 45 186 25 b 369 37 282 15 333 15 b 330 103 412 62 378 117 z "},"d":{"ha":592,"x_min":0,"x_max":0,"o":"m 563 805 b 499 869 567 839 531 869 b 435 805 461 869 439 839 b 419 560 427 724 422 642 b 310 609 391 587 355 605 b 27 332 128 627 35 487 b 255 24 19 173 81 37 b 418 76 327 19 381 46 b 545 85 428 3 545 6 b 563 805 543 324 538 567 z m 369 132 b 198 137 319 92 249 98 b 258 532 70 237 144 499 b 414 421 363 563 406 451 b 416 195 415 419 415 269 b 369 132 403 172 390 150 z "},"e":{"ha":521,"x_min":0,"x_max":0,"o":"m 476 240 b 429 213 458 244 433 234 b 328 87 427 203 412 129 b 152 240 263 56 148 99 b 412 330 243 226 353 257 b 456 463 441 367 460 414 b 353 595 451 515 419 577 b 144 556 267 618 190 588 b 26 276 66 502 26 406 b 239 0 26 142 84 13 b 368 22 279 -3 333 0 b 370 23 369 22 369 22 b 418 52 387 30 403 40 b 503 193 461 86 493 139 b 476 240 507 212 498 235 z m 248 506 b 338 517 287 529 316 530 b 163 316 425 466 362 284 b 248 506 169 389 191 472 z "},"f":{"ha":408,"x_min":0,"x_max":0,"o":"m 368 526 b 239 523 325 526 282 524 b 243 603 240 573 243 591 b 375 718 243 717 361 719 b 414 756 396 716 414 737 b 375 795 414 779 396 794 b 115 575 202 804 119 681 b 113 521 114 558 114 540 b 44 519 90 520 67 519 b 6 480 24 518 5 501 b 44 442 7 460 22 441 b 110 444 66 443 88 443 b 108 62 107 348 105 226 b 236 62 110 -20 238 -21 b 237 446 234 167 235 341 b 368 449 280 447 324 449 b 406 488 388 450 407 467 b 368 526 405 508 389 526 z "},"g":{"ha":503,"x_min":0,"x_max":0,"o":"m 335 614 b 211 643 298 636 253 647 b 45 512 133 636 71 585 b 29 403 32 478 29 440 b 54 289 29 364 33 323 b 240 213 94 226 168 200 b 325 247 269 218 299 230 b 322 87 324 193 323 140 b 101 40 317 -124 123 20 b 48 54 85 54 67 65 b 34 1 31 44 23 19 b 380 -77 106 -113 280 -174 b 453 224 454 -5 451 115 b 461 594 456 347 458 470 b 335 614 462 670 352 679 z m 328 359 b 303 326 322 348 314 336 b 246 293 287 311 267 300 b 127 320 204 280 157 284 b 107 382 112 337 108 359 b 110 461 105 408 105 435 b 197 564 120 509 147 550 b 331 519 239 575 298 562 b 328 359 330 466 329 413 z "},"h":{"ha":539,"x_min":0,"x_max":0,"o":"m 320 623 b 181 557 258 623 211 589 b 187 805 182 639 184 722 b 59 805 189 887 61 887 b 40 85 51 565 50 325 b 168 85 37 3 165 3 b 178 428 173 200 176 314 b 318 542 200 470 255 549 b 401 357 393 534 403 441 b 399 110 401 351 400 215 b 448 61 398 83 422 61 b 496 108 472 61 496 82 b 499 369 497 214 499 362 b 320 623 499 506 463 622 z "},"i":{"ha":222,"x_min":0,"x_max":0,"o":"m 114 605 b 50 541 79 605 50 575 b 43 74 48 385 48 230 b 107 10 42 40 73 10 b 171 74 143 10 170 40 b 178 541 176 230 176 385 b 114 605 178 575 148 605 z m 123 676 b 123 804 205 676 205 804 b 123 676 41 804 40 676 z "},"j":{"ha":228,"x_min":0,"x_max":0,"o":"m 56 545 b 48 221 56 545 51 343 b 44 42 47 161 45 102 b -34 -92 43 -13 21 -92 b -122 -29 -99 -92 -114 -47 b -167 -7 -132 -11 -149 -2 b -194 -54 -189 -13 -197 -34 b -122 -149 -188 -94 -156 -129 b -60 -169 -102 -161 -82 -167 b 101 -132 -11 -176 60 -170 b 175 189 181 -61 173 73 b 184 541 178 321 181 409 b 56 545 186 629 58 633 z m 112 676 b 112 804 194 676 194 804 b 112 676 30 804 29 676 z "},"k":{"ha":429,"x_min":0,"x_max":0,"o":"m 184 374 b 184 375 184 375 184 375 b 413 593 261 447 339 518 b 359 647 448 628 394 682 b 174 471 298 587 236 529 b 180 788 175 548 179 760 b 52 788 181 870 53 870 b 40 206 48 594 44 400 b 39 122 40 178 39 150 b 167 122 37 40 165 40 b 170 277 168 174 169 225 b 299 137 213 230 257 184 b 350 81 317 119 334 100 b 405 81 364 65 391 67 b 405 135 420 96 418 119 b 184 374 334 217 258 295 z "},"l":{"ha":318,"x_min":0,"x_max":0,"o":"m 285 141 b 162 285 181 141 161 210 b 165 463 163 344 164 404 b 169 787 167 586 169 787 b 41 788 170 875 42 876 b 37 436 39 656 39 568 b 99 112 35 320 22 187 b 288 79 151 61 256 77 b 285 141 323 83 332 141 z "},"m":{"ha":829,"x_min":0,"x_max":0,"o":"m 763 528 b 610 653 744 599 693 671 b 463 482 533 637 490 552 b 422 576 455 516 443 549 b 256 602 381 627 311 633 b 178 521 223 584 198 554 b 178 574 178 539 178 556 b 114 638 179 608 148 638 b 50 574 79 638 51 609 b 46 93 46 414 46 253 b 174 93 46 11 174 11 b 174 301 174 162 174 232 b 271 517 194 377 214 461 b 361 529 296 542 338 558 b 397 378 393 491 395 425 b 387 187 399 314 395 250 b 463 177 382 144 456 134 b 507 377 474 244 488 311 b 612 572 526 440 553 536 b 639 579 622 578 628 580 b 657 571 644 579 653 574 b 691 500 675 556 685 527 b 709 248 712 419 710 331 b 706 -4 708 165 698 79 b 782 -4 710 -53 787 -53 b 786 241 775 77 784 160 b 763 528 787 336 789 436 z "},"n":{"ha":493,"x_min":0,"x_max":0,"o":"m 406 545 b 218 610 367 608 287 638 b 176 584 202 603 188 595 b 114 631 168 611 143 631 b 50 567 79 631 51 602 b 46 86 46 407 46 246 b 174 86 46 4 174 4 b 177 449 174 207 175 328 b 231 530 188 481 204 510 b 340 507 262 554 316 545 b 377 300 376 448 376 367 b 369 24 378 208 369 116 b 446 24 369 -26 446 -26 b 454 296 446 115 454 205 b 406 545 453 378 450 474 z "},"o":{"ha":575,"x_min":0,"x_max":0,"o":"m 308 598 b 22 318 161 608 33 483 b 267 1 10 152 120 11 b 553 281 414 -9 542 116 b 308 598 564 447 455 588 z m 479 277 b 304 105 469 173 390 96 b 166 309 217 113 155 205 b 341 481 176 413 255 490 b 479 277 428 472 490 381 z "},"p":{"ha":554,"x_min":0,"x_max":0,"o":"m 323 596 b 200 555 270 597 229 578 b 136 618 203 589 168 618 b 72 554 99 618 75 589 b 38 -165 49 316 26 75 b 166 -165 43 -247 171 -247 b 167 150 161 -60 162 45 b 301 94 206 118 255 96 b 531 343 458 87 524 240 b 323 596 541 479 472 592 z m 438 333 b 330 173 433 263 397 194 b 173 245 268 154 195 213 b 188 433 177 308 183 371 b 230 499 200 458 210 480 b 382 506 271 535 338 540 b 438 333 431 468 444 399 z "},"q":{"ha":544,"x_min":0,"x_max":0,"o":"m 511 555 b 447 619 515 589 479 619 b 386 564 414 619 392 594 b 226 611 342 601 283 620 b 52 437 137 597 81 517 b 51 154 20 350 13 241 b 254 50 87 75 169 35 b 348 99 291 57 322 75 b 350 -165 345 11 345 -77 b 478 -165 354 -247 482 -247 b 511 555 465 75 488 316 z m 356 236 b 231 130 328 185 279 124 b 134 367 165 139 114 198 b 230 537 141 427 172 510 b 374 462 283 561 352 522 b 374 461 374 462 374 462 b 356 236 367 386 361 311 z "},"r":{"ha":438,"x_min":0,"x_max":0,"o":"m 424 553 b 244 577 381 608 301 608 b 198 542 227 568 212 555 b 134 595 194 571 163 595 b 70 531 97 595 74 565 b 35 45 55 369 41 207 b 99 -19 33 11 65 -19 b 163 45 135 -19 161 11 b 186 398 167 163 176 280 b 225 458 199 418 212 438 b 273 505 238 475 258 494 b 370 499 322 540 366 503 b 424 499 382 482 411 485 b 424 553 440 515 437 537 z "},"s":{"ha":353,"x_min":0,"x_max":0,"o":"m 176 535 b 270 515 225 560 265 519 b 329 561 301 490 354 518 b 175 616 302 609 225 627 b 48 473 116 603 57 563 b 134 273 41 401 87 327 b 151 72 269 118 184 56 b 92 141 123 86 103 113 b 23 108 73 187 4 153 b 181 -10 48 46 110 -15 b 309 173 269 -4 325 92 b 198 361 294 247 241 302 b 149 453 178 388 160 421 b 176 535 135 496 158 526 z "},"t":{"ha":503,"x_min":0,"x_max":0,"o":"m 479 280 b 431 307 474 300 451 313 b 405 260 411 301 405 282 b 302 123 405 116 319 119 b 238 270 241 137 237 214 b 241 456 239 332 240 394 b 242 553 241 485 242 519 b 388 553 291 553 339 553 b 388 630 438 553 438 630 b 243 630 340 630 291 630 b 245 794 244 718 245 794 b 117 794 246 886 118 886 b 115 630 116 733 115 681 b 34 630 88 630 61 630 b 34 553 -15 630 -15 553 b 114 553 61 553 87 553 b 112 251 113 514 113 297 b 285 22 110 131 160 31 b 482 190 425 13 471 125 b 479 280 486 220 486 251 z "},"u":{"ha":488,"x_min":0,"x_max":0,"o":"m 381 593 b 317 529 347 593 318 563 b 315 221 317 426 315 323 b 210 119 314 192 297 119 b 108 268 109 119 109 250 b 112 471 107 288 112 423 b 36 471 113 520 36 520 b 36 212 35 385 24 297 b 164 51 47 136 90 76 b 315 78 217 34 273 43 b 376 31 322 52 348 31 b 440 95 412 31 439 61 b 445 528 444 240 445 384 b 381 592 445 563 416 592 z "},"v":{"ha":414,"x_min":0,"x_max":0,"o":"m 316 546 b 277 300 316 464 297 381 b 223 135 265 251 230 135 b 181 252 214 135 186 233 b 157 506 159 336 153 416 b 93 570 159 540 126 570 b 29 506 57 570 31 541 b 58 218 24 409 34 311 b 137 27 75 152 99 84 b 224 4 156 -2 193 -13 b 348 268 281 35 335 214 b 393 546 370 357 393 454 b 316 546 394 595 317 595 z "},"w":{"ha":603,"x_min":0,"x_max":0,"o":"m 500 564 b 422 107 495 447 446 107 b 372 243 408 107 386 210 b 312 295 361 268 343 295 b 252 239 280 294 262 264 b 195 123 234 196 212 125 b 178 143 185 122 182 129 b 167 251 174 161 168 229 b 179 545 166 349 174 447 b 115 609 181 580 149 609 b 51 545 79 609 53 580 b 40 218 45 437 35 327 b 149 -3 44 139 54 11 b 313 183 252 -18 305 167 b 421 19 330 127 350 15 b 577 564 533 25 571 428 b 500 564 579 613 502 613 z "},"x":{"ha":394,"x_min":0,"x_max":0,"o":"m 262 315 b 366 473 296 368 330 421 b 299 512 393 514 327 553 b 222 395 273 473 248 434 b 138 575 193 454 164 514 b 50 598 124 607 77 614 b 27 510 17 579 13 542 b 141 269 63 429 101 348 b 41 109 108 216 74 162 b 107 70 15 67 81 28 b 183 190 132 110 158 150 b 253 57 206 146 229 101 b 341 34 270 27 312 17 b 364 122 371 52 381 91 b 262 315 328 185 295 250 z "},"y":{"ha":483,"x_min":0,"x_max":0,"o":"m 312 563 b 309 411 311 506 309 468 b 238 330 308 383 294 332 b 114 565 110 327 114 548 b 76 603 114 586 96 603 b 37 565 55 603 37 586 b 62 394 37 508 43 449 b 128 288 75 355 96 316 b 306 275 180 243 249 238 b 305 219 306 256 305 238 b 301 52 304 163 303 108 b 276 -36 300 17 293 -10 b 274 -38 276 -37 275 -38 b 266 -46 272 -41 269 -44 b 264 -48 265 -47 265 -48 b 263 -49 263 -48 264 -48 b 247 -58 257 -52 252 -55 b 245 -59 246 -59 246 -59 b 238 -62 243 -60 241 -61 b 223 -65 237 -62 224 -66 b 227 -64 230 -64 231 -64 b 217 -65 224 -65 220 -65 b 202 -65 212 -65 207 -65 b 173 -60 191 -64 185 -63 b 149 -52 164 -58 153 -54 b 124 -38 140 -48 132 -43 b 116 -32 123 -37 114 -30 b 108 -25 117 -33 109 -26 b 91 -8 102 -20 96 -14 b 85 -1 89 -6 87 -3 b 80 6 85 0 81 5 b 28 19 68 23 46 30 b 14 -33 11 10 2 -16 b 157 -135 49 -83 99 -120 b 159 -136 158 -135 158 -136 b 359 -112 201 -153 305 -157 b 432 189 438 -45 430 81 b 440 559 435 312 437 436 b 312 563 442 641 314 646 z "},"z":{"ha":481,"x_min":0,"x_max":0,"o":"m 458 510 b 438 598 477 538 463 582 b 404 606 426 605 415 608 b 112 614 306 607 209 614 b 112 537 67 614 67 538 b 329 531 184 537 257 533 b 288 474 316 512 302 493 b 191 342 256 430 224 386 b 15 92 131 261 68 180 b 36 5 -2 64 10 21 b 67 -4 46 -2 57 -5 b 71 -5 68 -4 70 -5 b 409 -5 184 -5 296 -5 b 409 72 453 -5 453 72 b 143 72 320 72 231 72 b 280 263 185 136 230 196 b 458 510 341 344 403 425 z "},"{":{"ha":413,"x_min":0,"x_max":0,"o":"m 319 -137 b 351 -49 332 -131 353 -71 b 324 -49 344 -49 334 -49 l 256 -49 l 257 -33 b 154 374 260 35 262 263 l 143 385 l 155 396 b 223 724 235 474 230 596 b 220 851 221 766 219 809 l 221 865 l 235 866 b 277 868 252 866 265 867 b 319 869 291 869 304 869 b 330 869 322 869 326 869 b 354 926 335 872 348 895 b 356 960 358 947 356 959 b 284 958 331 960 308 959 b 205 955 257 956 231 955 b 177 956 196 955 187 955 b 134 909 152 956 137 932 b 134 792 131 880 132 839 b 10 421 140 650 148 456 b 22 340 7 404 14 353 b 163 -93 153 279 181 76 b 171 -118 162 -104 167 -113 b 209 -137 180 -129 195 -136 b 266 -139 228 -138 247 -139 b 319 -137 285 -139 303 -138 z "},"|":{"ha":221,"x_min":0,"x_max":0,"o":"m 166 949 b 60 935 166 1004 60 1006 l 53 -92 b 156 -82 53 -152 156 -160 b 166 949 156 -82 165 689 z "},"}":{"ha":413,"x_min":0,"x_max":0,"o":"m 204 -136 b 241 -118 217 -136 232 -129 b 249 -93 245 -113 250 -104 b 390 340 232 76 259 279 b 402 421 398 353 405 404 b 278 792 264 459 272 651 b 278 909 280 839 281 880 b 233 956 275 932 261 956 b 207 955 233 956 216 955 b 128 958 181 955 155 957 b 58 961 104 959 81 960 b 58 926 56 959 54 948 b 78 870 64 895 77 872 b 135 868 102 870 118 869 b 177 866 147 867 160 867 l 191 866 l 192 851 b 189 724 193 809 191 766 b 257 396 183 596 177 474 l 269 385 l 258 374 b 155 -33 150 263 152 35 l 151 -49 l 88 -49 b 61 -49 77 -49 67 -49 b 90 -137 59 -71 80 -131 b 146 -139 109 -138 127 -139 b 204 -136 165 -139 184 -138 z "}," ":{"ha":378,"x_min":0,"x_max":0,"o":""},"¡":{"ha":196,"x_min":0,"x_max":0,"o":"m 129 560 l 65 560 b 35 -72 65 560 47 96 b 108 -138 32 -112 68 -144 b 159 -72 139 -132 161 -104 z m 97 642 b 140 685 121 642 140 661 b 97 728 140 709 121 728 b 54 685 73 728 54 709 b 97 642 54 661 73 642 z "},"¢":{"ha":414,"x_min":0,"x_max":0,"o":"m 333 98 b 166 243 263 77 177 103 b 252 516 160 320 170 468 b 342 527 291 539 331 529 b 389 555 368 523 382 533 b 357 605 394 573 387 598 b 273 611 328 612 300 613 l 275 836 b 218 819 275 871 218 874 l 220 600 b 147 566 191 592 166 579 b 30 286 56 502 36 384 b 93 81 25 213 41 135 b 219 19 127 46 172 27 l 221 -206 b 272 -190 221 -241 272 -246 l 274 13 b 372 32 307 12 344 15 b 333 98 414 57 381 112 z "},"£":{"ha":631,"x_min":0,"x_max":0,"o":"m 555 91 b 335 125 494 45 413 93 b 194 148 288 144 231 165 b 277 401 233 195 288 277 b 406 401 277 401 365 400 b 405 470 450 402 448 470 b 263 468 362 470 263 468 b 230 625 255 514 238 546 b 298 776 222 703 247 760 b 485 670 404 809 475 684 b 575 722 517 625 602 668 b 179 788 497 877 300 920 b 119 570 125 728 112 647 b 138 467 122 536 131 500 b 66 466 138 467 92 466 b 62 404 32 466 28 406 b 151 402 95 402 151 402 b 29 78 166 237 92 158 b 87 4 12 56 53 -23 b 268 61 141 46 226 77 b 456 3 347 31 408 8 b 610 44 532 -6 588 17 b 555 91 635 77 596 122 z "},"¥":{"ha":628,"x_min":0,"x_max":0,"o":"m 584 773 b 585 846 588 803 590 816 b 537 873 581 867 556 878 b 510 829 517 867 508 848 b 510 829 510 829 510 830 b 333 495 505 708 468 495 b 168 816 172 495 153 728 b 124 894 174 850 159 884 b 45 850 93 903 51 884 b 99 520 26 738 35 618 b 197 421 124 481 157 446 b 265 391 215 409 262 392 b 264 333 265 390 264 363 l 101 334 b 104 275 67 334 52 275 l 262 277 b 261 272 262 275 262 274 b 258 212 260 252 259 232 l 95 211 b 110 160 62 211 57 160 l 255 159 b 251 62 254 127 252 94 b 379 62 250 -21 378 -21 b 382 159 380 84 381 119 l 548 157 b 544 214 581 157 596 214 l 384 213 b 387 278 385 235 386 257 l 553 280 b 538 331 586 280 591 331 l 389 332 b 394 392 391 359 392 380 b 584 773 559 469 569 649 z "},"§":{"ha":429,"x_min":0,"x_max":0,"o":"m 214 906 b 261 919 229 914 245 919 b 349 885 290 921 319 910 b 370 879 357 880 365 879 b 394 892 381 879 390 885 b 391 918 399 901 395 911 b 255 973 365 959 303 976 b 223 969 244 973 233 971 b 91 806 166 953 97 913 b 200 584 86 722 147 639 b 177 581 192 583 184 582 b 45 418 120 565 51 524 b 154 195 40 334 102 250 b 249 -33 269 75 263 1 b 187 -81 238 -61 213 -80 b 164 -77 178 -82 171 -80 b 79 12 130 -62 99 -30 b 59 26 75 22 68 26 b 33 10 49 25 38 19 b 32 -15 28 2 28 -6 b 202 -139 61 -77 127 -142 b 211 -138 205 -139 208 -138 b 310 -76 250 -134 285 -112 b 338 66 339 -35 350 19 b 232 240 322 133 278 185 b 222 251 229 243 225 247 b 248 249 231 250 239 249 b 256 250 251 250 254 250 b 356 312 296 254 331 276 b 384 454 385 353 396 408 b 278 628 368 521 324 573 b 244 668 266 641 255 654 b 177 782 224 694 195 735 b 214 906 154 843 187 890 z m 295 355 b 232 307 283 328 259 308 b 209 311 224 307 217 308 b 140 374 183 323 159 345 b 131 394 137 381 134 387 b 168 517 108 455 141 502 b 215 531 183 526 199 531 b 295 355 296 531 319 408 z "},"©":{"ha":924,"x_min":0,"x_max":0,"o":"m 461 863 b 31 433 224 863 31 670 b 461 2 31 195 224 2 b 892 433 699 2 892 195 b 461 863 892 670 699 863 z m 461 59 b 88 433 256 59 88 227 b 461 806 88 638 256 806 b 835 433 667 806 835 638 b 461 59 835 227 667 59 z m 538 256 b 401 376 481 239 410 260 b 472 600 396 439 404 560 b 545 609 504 619 537 611 b 584 632 567 606 579 614 b 558 674 588 647 583 668 b 385 641 487 691 423 668 b 289 411 310 589 294 492 b 341 242 285 351 298 286 b 466 187 374 208 420 192 b 570 201 498 184 541 184 b 538 256 605 222 578 268 z "},"«":{"ha":538,"x_min":0,"x_max":0,"o":"m 139 378 b 138 402 132 385 132 395 l 279 582 b 283 627 289 594 293 614 b 246 649 271 641 258 649 b 218 632 234 649 224 640 l 28 423 b 34 358 16 408 19 372 l 233 144 b 246 139 237 141 241 139 b 291 171 261 139 283 151 b 281 218 298 187 295 203 b 139 378 247 255 139 378 z m 498 218 b 355 378 464 255 355 378 b 354 402 349 385 348 395 l 495 582 b 499 627 505 594 510 614 b 463 649 487 641 474 649 b 434 632 450 649 441 640 l 245 423 b 250 358 233 408 235 372 l 450 144 b 463 139 453 141 457 139 b 508 171 477 139 499 151 b 498 218 513 182 515 199 z "},"­":{"ha":0,"x_min":0,"x_max":0,"o":""},"®":{"ha":589,"x_min":0,"x_max":0,"o":"m 393 632 b 409 730 416 659 429 699 b 317 775 389 760 351 772 b 248 773 294 777 271 776 b 203 764 238 791 205 788 b 179 756 195 761 187 759 b 187 729 162 751 169 723 b 203 734 192 731 197 732 b 203 589 203 685 203 637 b 187 588 198 589 193 588 b 187 559 169 586 169 557 b 203 560 192 559 198 560 b 203 442 203 521 203 481 b 251 442 203 411 251 411 b 251 566 251 483 251 525 b 280 572 261 568 271 569 b 319 532 294 559 307 546 b 389 423 348 499 373 463 b 407 413 392 416 399 411 b 417 431 414 415 420 424 b 342 549 399 474 373 513 b 313 580 333 560 323 570 b 393 632 344 591 372 607 z m 301 607 b 250 595 284 602 267 598 b 250 744 250 645 250 694 b 287 747 263 745 275 747 b 376 724 317 748 353 746 b 372 651 399 704 390 672 b 301 607 354 630 327 616 z m 294 862 b 31 599 149 862 31 744 b 294 335 31 454 149 335 b 557 599 439 335 557 454 b 294 862 557 744 439 862 z m 294 371 b 66 599 168 371 66 473 b 294 827 66 725 168 827 b 522 599 420 827 522 724 b 294 371 522 473 420 371 z "},"°":{"ha":351,"x_min":0,"x_max":0,"o":"m 275 830 b 211 865 271 835 242 860 b 184 868 202 867 193 868 b 70 820 143 868 100 850 b 73 593 12 760 10 651 b 172 555 99 569 135 555 b 189 556 178 555 184 556 b 297 622 232 561 277 590 b 275 830 341 690 331 775 z m 254 681 b 182 625 244 653 217 628 b 116 654 151 623 129 637 b 117 767 90 691 90 731 b 213 790 146 807 191 800 b 254 681 261 768 268 709 z "},"·":{"ha":129,"x_min":0,"x_max":0,"o":"m 64 511 b 17 464 38 511 17 490 b 64 416 17 438 38 416 b 111 464 90 416 111 438 b 64 511 111 490 90 511 z "},"»":{"ha":539,"x_min":0,"x_max":0,"o":"m 293 423 l 103 633 b 75 649 97 640 87 649 b 39 627 63 649 51 641 b 42 582 28 614 33 594 l 184 402 b 183 378 189 395 189 385 b 40 218 183 378 74 255 b 30 171 26 203 23 187 b 75 139 39 151 60 139 b 88 144 80 139 85 141 l 288 358 b 293 423 302 372 305 408 z m 510 423 l 319 633 b 291 649 313 640 304 649 b 255 627 280 649 267 641 b 258 582 244 614 249 594 l 400 402 b 399 378 406 395 405 385 b 256 218 399 378 290 255 b 246 171 243 203 239 187 b 291 139 255 151 276 139 b 304 143 297 139 301 141 l 505 358 b 510 423 519 372 521 408 z "},"¿":{"ha":418,"x_min":0,"x_max":0,"o":"m 486 -50 b 418 -7 484 -16 450 5 b 271 -41 376 -25 322 -41 b 130 44 204 -41 155 -12 b 251 340 63 195 204 304 b 402 570 341 409 398 473 b 374 572 396 571 387 572 b 325 568 353 572 335 570 b 180 378 317 483 245 427 b 80 284 140 347 102 318 b 40 3 17 190 5 106 b 274 -139 81 -120 204 -139 b 459 -99 337 -139 405 -124 b 486 -54 476 -92 487 -73 b 486 -50 486 -53 486 -51 z m 362 642 b 405 685 386 642 405 661 b 362 728 405 709 386 728 b 319 685 338 728 319 709 b 362 642 319 661 338 642 z "},"À":{"ha":721,"x_min":0,"x_max":0,"o":"m 331 1053 b 411 1065 347 1034 424 1034 b 361 1175 402 1085 370 1158 b 286 1202 352 1192 323 1202 b 243 1163 245 1202 228 1182 b 331 1053 265 1134 301 1087 z m 675 399 b 636 398 662 398 649 398 b 397 986 586 678 511 986 b 252 881 328 986 283 936 b 94 392 169 733 132 555 b 41 391 76 392 59 392 b 41 315 -8 391 -8 314 b 77 315 53 315 65 315 b 32 99 61 243 46 171 b 155 65 16 19 139 -16 b 208 316 172 149 189 233 b 568 321 328 318 448 319 b 620 13 588 211 605 102 b 694 33 628 -36 702 -15 b 649 321 682 102 668 206 b 675 322 657 322 666 322 b 675 399 724 322 724 399 z m 226 393 b 289 630 244 473 265 552 b 358 803 311 701 324 735 b 452 789 383 853 424 854 b 554 397 490 699 524 552 b 226 393 444 396 335 395 z "},"Á":{"ha":721,"x_min":0,"x_max":0,"o":"m 439 1053 b 528 1163 469 1087 505 1134 b 485 1202 542 1182 525 1202 b 410 1175 447 1202 419 1192 b 359 1065 400 1158 368 1085 b 439 1053 346 1034 423 1034 z m 675 399 b 635 398 662 398 649 398 b 397 986 586 678 511 986 b 252 881 328 986 283 936 b 94 392 169 733 132 555 b 41 391 76 392 59 392 b 41 315 -8 391 -8 314 b 77 315 53 315 65 315 b 32 99 61 243 46 171 b 155 65 16 19 139 -16 b 208 316 172 149 189 233 b 568 321 328 318 448 319 b 620 13 588 211 605 102 b 694 33 628 -36 702 -15 b 649 321 682 102 668 206 b 675 322 657 322 666 322 b 675 399 724 322 724 399 z m 226 393 b 289 630 245 473 265 552 b 358 803 311 701 324 735 b 452 789 383 853 424 854 b 554 397 490 699 524 552 b 226 393 444 396 335 395 z "},"Â":{"ha":721,"x_min":0,"x_max":0,"o":"m 274 1041 b 324 1058 286 1041 309 1043 b 389 1144 332 1065 389 1144 b 459 1056 389 1144 454 1063 b 537 1075 483 1028 554 1052 b 447 1184 521 1097 447 1184 b 420 1199 437 1199 426 1199 b 354 1199 403 1199 354 1199 b 331 1186 345 1199 337 1192 b 244 1078 309 1160 265 1104 b 274 1041 230 1061 248 1041 z m 675 399 b 636 398 662 398 649 398 b 397 986 586 678 511 986 b 252 881 328 986 283 936 b 94 392 169 733 132 555 b 41 391 76 392 59 392 b 41 315 -8 391 -8 314 b 77 315 53 315 65 315 b 32 99 61 243 46 171 b 155 65 16 19 139 -16 b 208 316 172 149 189 233 b 568 321 328 318 448 319 b 620 13 588 211 605 102 b 694 33 628 -36 702 -15 b 649 321 682 102 668 206 b 675 322 657 322 666 322 b 675 399 724 322 724 399 z m 226 393 b 289 630 245 473 265 552 b 358 803 311 701 324 735 b 452 789 383 853 424 854 b 554 397 490 699 524 552 b 226 393 444 396 335 395 z "},"Ã":{"ha":721,"x_min":0,"x_max":0,"o":"m 227 1060 b 263 1053 237 1049 249 1040 b 331 1086 287 1075 303 1086 b 479 1043 360 1086 427 1045 b 559 1064 510 1041 538 1049 b 570 1096 569 1072 574 1084 b 557 1131 570 1096 561 1122 b 534 1140 554 1140 549 1149 b 487 1119 523 1133 504 1121 b 310 1162 447 1117 373 1171 b 217 1118 275 1158 248 1144 b 212 1083 207 1109 205 1094 b 227 1060 212 1083 221 1066 z m 675 399 b 636 398 662 398 649 398 b 397 986 586 678 511 986 b 252 881 328 986 283 936 b 94 392 169 733 132 555 b 41 391 76 392 59 392 b 41 315 -8 391 -8 314 b 77 315 53 315 65 315 b 32 99 61 243 46 171 b 155 65 16 19 139 -16 b 208 316 172 149 189 233 b 568 321 328 318 448 319 b 620 13 588 211 605 102 b 694 33 628 -36 702 -15 b 649 321 682 102 668 206 b 675 322 657 322 666 322 b 675 399 724 322 724 399 z m 226 393 b 289 630 245 473 265 552 b 358 803 311 701 324 735 b 452 789 383 853 424 854 b 554 397 490 699 524 552 b 226 393 444 396 335 395 z "},"Ä":{"ha":721,"x_min":0,"x_max":0,"o":"m 275 1040 b 333 1098 307 1040 333 1066 b 275 1156 333 1130 307 1156 b 216 1098 242 1156 216 1130 b 275 1040 216 1066 242 1040 z m 444 1040 b 502 1098 476 1040 502 1066 b 444 1156 502 1130 476 1156 b 385 1098 412 1156 385 1130 b 444 1040 385 1066 412 1040 z m 675 399 b 636 398 662 398 649 398 b 397 986 586 678 511 986 b 252 881 328 986 283 936 b 94 392 169 733 132 555 b 41 391 76 392 59 392 b 41 315 -8 391 -8 314 b 77 315 53 315 65 315 b 32 99 61 243 46 171 b 155 65 16 19 139 -16 b 208 316 172 149 189 233 b 568 321 328 318 448 319 b 620 13 588 211 605 102 b 694 33 628 -36 702 -15 b 649 321 682 102 668 206 b 675 322 657 322 666 322 b 675 399 724 322 724 399 z m 226 393 b 289 630 245 473 265 552 b 358 803 311 701 324 735 b 452 789 383 853 424 854 b 554 397 490 699 524 552 b 226 393 444 396 335 395 z "},"Å":{"ha":721,"x_min":0,"x_max":0,"o":"m 675 399 b 635 398 662 398 649 398 b 440 970 592 641 530 905 b 472 1000 453 978 465 989 b 456 1144 502 1047 496 1105 b 414 1167 454 1146 435 1164 b 396 1169 409 1168 402 1169 b 318 1135 368 1169 339 1156 b 288 1054 298 1115 288 1086 b 320 981 289 1025 300 999 b 334 970 324 977 329 973 b 252 881 299 951 272 917 b 94 392 169 733 132 555 b 41 391 76 392 59 392 b 41 315 -8 391 -8 314 b 77 315 53 315 65 315 b 32 99 61 243 46 171 b 155 65 16 19 139 -16 b 208 316 172 149 189 233 b 568 320 328 318 448 319 b 620 13 588 211 605 102 b 694 33 628 -36 702 -15 b 649 321 682 102 668 206 b 675 322 657 321 666 322 b 675 399 724 322 724 399 z m 350 1106 b 392 1123 363 1120 380 1123 b 417 1119 403 1123 412 1121 b 447 1041 451 1101 457 1061 b 390 1001 438 1019 417 1003 b 347 1023 372 1001 356 1009 b 350 1106 328 1049 329 1082 z m 225 393 b 289 630 244 473 265 552 b 358 803 311 701 324 735 b 452 789 383 853 424 854 b 554 397 490 699 524 552 b 225 393 444 396 335 395 z "},"Æ":{"ha":946,"x_min":0,"x_max":0,"o":"m 912 77 b 544 77 789 77 666 77 b 537 317 539 238 537 156 b 791 317 622 317 706 317 b 791 393 840 317 841 393 b 538 393 707 393 622 393 b 544 909 539 485 540 818 b 869 909 652 909 760 909 b 869 986 918 909 918 986 b 397 986 751 986 401 986 b 252 881 328 986 283 936 b 94 392 169 733 132 555 b 41 391 76 392 59 392 b 41 315 -8 391 -8 314 b 77 315 53 315 65 315 b 32 99 61 243 46 171 b 155 65 16 19 139 -16 b 208 316 172 149 189 233 b 411 319 275 317 343 318 b 416 62 412 233 414 147 b 492 1 418 16 457 -4 b 912 1 632 1 772 1 b 912 77 961 1 961 77 z m 410 396 b 226 393 348 395 287 394 b 289 630 245 473 265 552 b 415 895 307 687 352 865 b 410 396 409 728 408 562 z "},"Ç":{"ha":579,"x_min":0,"x_max":0,"o":"m 526 119 b 196 449 332 66 196 238 b 375 883 196 655 246 801 b 532 904 423 913 514 904 b 548 980 591 903 597 968 b 211 917 409 1013 285 969 b 23 467 65 814 17 625 b 337 36 36 126 232 54 b 336 -23 337 13 336 -21 b 359 -51 337 -36 346 -48 b 406 -97 401 -62 408 -82 b 373 -124 405 -113 392 -124 b 344 -116 363 -124 353 -121 b 327 -110 338 -112 332 -110 b 308 -123 319 -110 311 -115 b 311 -153 303 -133 304 -145 b 376 -179 324 -169 349 -179 b 422 -167 393 -179 409 -175 b 464 -100 445 -153 461 -128 b 439 -27 467 -72 458 -45 b 397 -2 419 -8 397 -2 l 398 29 b 555 51 452 24 506 25 b 526 119 598 74 583 135 z "},"È":{"ha":597,"x_min":0,"x_max":0,"o":"m 313 1053 b 393 1065 329 1034 406 1034 b 342 1175 384 1085 352 1158 b 267 1202 333 1192 305 1202 b 224 1163 227 1202 210 1182 b 313 1053 247 1134 283 1087 z m 563 76 b 195 76 440 76 318 76 b 189 557 191 237 188 397 b 442 557 273 557 358 557 b 442 634 492 557 492 634 b 189 634 358 634 273 634 b 195 908 190 726 192 817 b 520 908 303 908 412 908 b 520 985 569 908 570 985 b 167 985 402 985 285 985 b 100 985 147 996 121 996 b 70 985 90 985 80 985 b 67 909 22 985 21 913 b 67 61 57 626 59 343 b 143 0 69 15 108 -5 b 563 0 283 0 423 0 b 563 76 612 0 613 76 z "},"É":{"ha":597,"x_min":0,"x_max":0,"o":"m 371 1053 b 460 1163 401 1087 437 1134 b 417 1202 474 1182 457 1202 b 342 1175 379 1202 351 1192 b 291 1065 332 1158 300 1085 b 371 1053 278 1034 355 1034 z m 563 76 b 195 76 440 76 318 76 b 189 557 191 237 188 397 b 442 557 273 557 358 557 b 442 634 492 557 492 634 b 189 634 358 634 273 634 b 195 908 190 726 192 817 b 520 908 303 908 412 908 b 520 985 569 908 570 985 b 167 985 402 985 285 985 b 100 985 147 996 121 996 b 70 985 90 985 80 985 b 67 909 22 985 21 913 b 67 61 57 626 59 343 b 143 0 69 15 108 -5 b 563 0 283 0 423 0 b 563 76 613 0 613 76 z "},"Ê":{"ha":597,"x_min":0,"x_max":0,"o":"m 201 1041 b 251 1058 213 1041 236 1043 b 316 1144 259 1065 316 1144 b 386 1056 316 1144 381 1063 b 465 1075 410 1028 481 1052 b 374 1184 448 1097 374 1184 b 347 1199 364 1199 353 1199 b 281 1199 330 1199 281 1199 b 258 1186 272 1199 264 1192 b 171 1078 236 1160 192 1104 b 201 1041 157 1061 175 1041 z m 563 76 b 195 76 440 76 318 76 b 189 557 191 237 188 397 b 442 557 273 557 358 557 b 442 634 492 557 492 634 b 189 634 358 634 273 634 b 195 908 190 726 192 817 b 520 908 303 908 412 908 b 520 985 569 908 570 985 b 167 985 402 985 285 985 b 100 985 147 996 121 996 b 70 985 90 985 80 985 b 67 909 22 985 21 913 b 67 61 57 626 59 343 b 143 0 69 15 108 -5 b 563 0 283 0 423 0 b 563 76 612 0 613 76 z "},"Ë":{"ha":597,"x_min":0,"x_max":0,"o":"m 232 1041 b 290 1099 264 1041 290 1067 b 232 1157 290 1131 264 1157 b 174 1099 200 1157 174 1131 b 232 1041 174 1067 200 1041 z m 401 1041 b 460 1099 433 1041 460 1067 b 401 1157 460 1131 433 1157 b 343 1099 369 1157 343 1131 b 401 1041 343 1067 369 1041 z m 563 76 b 195 76 440 76 318 76 b 189 557 191 237 188 397 b 442 557 273 557 358 557 b 442 634 492 557 492 634 b 189 634 358 634 273 634 b 195 908 190 726 192 817 b 520 908 303 908 412 908 b 520 985 569 908 570 985 b 167 985 402 985 285 985 b 100 985 147 996 121 996 b 70 985 90 985 80 985 b 67 909 22 985 21 913 b 67 61 57 626 59 343 b 143 0 69 15 108 -5 b 563 0 283 0 423 0 b 563 76 612 0 613 76 z "},"Ì":{"ha":242,"x_min":0,"x_max":0,"o":"m 177 1065 b 127 1175 169 1085 136 1158 b 52 1202 118 1192 89 1202 b 9 1163 12 1202 -5 1182 b 98 1053 32 1134 68 1087 b 177 1065 114 1034 190 1034 z m 195 82 b 187 151 194 87 188 136 b 182 264 184 189 183 227 b 180 555 179 361 179 458 b 187 928 181 679 183 804 b 59 928 189 1010 61 1010 b 52 545 59 928 53 673 b 54 256 51 449 51 352 b 72 48 56 187 57 116 b 195 82 90 -32 214 2 z "},"Í":{"ha":242,"x_min":0,"x_max":0,"o":"m 208 1202 b 133 1175 171 1202 142 1192 b 83 1065 124 1158 91 1085 b 163 1053 70 1034 146 1034 b 251 1163 192 1087 228 1134 b 208 1202 265 1182 248 1202 z m 187 151 b 182 264 184 189 183 226 b 180 555 179 361 179 458 b 187 928 181 679 183 803 b 59 928 189 1010 61 1010 b 52 545 59 928 53 673 b 54 256 51 449 51 352 b 72 48 56 187 57 116 b 196 82 90 -32 214 2 b 187 151 194 87 188 135 z "},"Î":{"ha":240,"x_min":0,"x_max":0,"o":"m 272 1075 b 182 1184 256 1097 182 1184 b 154 1199 171 1199 160 1199 b 88 1199 138 1199 88 1199 b 66 1186 80 1199 71 1192 b -21 1078 44 1160 0 1104 b 8 1041 -36 1061 -18 1041 b 59 1058 21 1041 43 1043 b 123 1144 66 1065 123 1144 b 194 1056 123 1144 188 1063 b 272 1075 218 1028 289 1052 z m 187 151 b 182 264 184 189 183 226 b 180 555 179 361 179 458 b 187 928 181 679 183 803 b 59 928 189 1010 61 1010 b 52 545 59 928 52 673 b 54 256 51 449 51 352 b 72 48 56 187 57 116 b 195 82 90 -32 213 2 b 187 151 194 87 188 135 z "},"Ï":{"ha":240,"x_min":0,"x_max":0,"o":"m 97 1099 b 39 1157 97 1131 71 1157 b -19 1099 7 1157 -19 1131 b 39 1041 -19 1067 7 1041 b 97 1099 71 1041 97 1067 z m 208 1157 b 150 1099 176 1157 150 1131 b 208 1041 150 1067 176 1041 b 266 1099 240 1041 266 1067 b 208 1157 266 1131 240 1157 z m 186 151 b 181 264 184 189 182 226 b 179 555 178 361 178 458 b 186 928 180 679 182 803 b 58 928 189 1010 61 1010 b 51 545 58 928 52 673 b 53 256 50 449 50 352 b 71 48 55 187 56 116 b 195 82 89 -32 213 2 b 186 151 194 87 187 135 z "},"Ñ":{"ha":757,"x_min":0,"x_max":0,"o":"m 210 1060 b 246 1053 219 1049 232 1040 b 313 1086 270 1075 286 1086 b 462 1043 343 1086 410 1045 b 542 1064 493 1041 521 1049 b 552 1096 552 1072 556 1084 b 540 1131 552 1096 544 1122 b 517 1140 536 1140 532 1149 b 470 1119 506 1133 487 1121 b 292 1162 430 1117 356 1171 b 200 1118 258 1158 231 1144 b 195 1083 190 1109 188 1094 b 210 1060 195 1083 204 1066 z m 697 949 b 620 949 697 998 620 998 b 624 272 623 723 626 498 b 551 420 601 322 577 372 b 216 934 474 564 301 847 b 103 916 183 969 118 976 b 50 54 33 637 39 197 b 178 54 56 -28 184 -28 b 178 473 167 193 171 333 b 214 815 185 587 194 702 b 409 516 228 797 360 599 b 555 243 461 427 511 336 b 620 38 583 181 620 108 b 697 38 620 -11 696 -11 b 697 949 705 342 701 646 z "},"Ò":{"ha":881,"x_min":0,"x_max":0,"o":"m 412 1053 b 492 1066 428 1035 505 1035 b 442 1176 483 1086 451 1159 b 367 1203 433 1193 404 1203 b 324 1164 326 1203 309 1183 b 412 1053 346 1135 382 1087 z m 448 1007 b 22 517 252 1007 22 872 b 422 44 22 172 283 44 b 858 568 640 44 857 206 b 448 1007 858 767 744 1007 z m 471 132 b 172 523 378 132 172 169 b 468 919 172 715 240 919 b 772 525 692 919 772 733 b 471 132 772 310 645 132 z "},"Ó":{"ha":881,"x_min":0,"x_max":0,"o":"m 520 1053 b 608 1164 549 1087 585 1135 b 565 1203 622 1183 605 1203 b 490 1176 528 1203 499 1193 b 440 1066 481 1159 448 1086 b 520 1053 427 1035 503 1035 z m 448 1007 b 22 517 252 1007 22 872 b 422 44 22 172 283 44 b 858 568 640 44 857 206 b 448 1007 859 767 744 1007 z m 471 132 b 172 523 379 132 172 169 b 468 919 172 715 240 919 b 772 525 692 919 772 733 b 471 132 772 310 645 132 z "},"Ô":{"ha":881,"x_min":0,"x_max":0,"o":"m 324 1042 b 375 1059 337 1042 359 1044 b 439 1145 382 1066 439 1145 b 510 1057 439 1145 504 1063 b 588 1076 534 1029 605 1053 b 498 1185 572 1098 498 1185 b 470 1200 487 1200 476 1200 b 404 1200 454 1200 404 1200 b 382 1187 396 1200 387 1193 b 295 1079 360 1161 316 1105 b 324 1042 280 1062 298 1042 z m 448 1007 b 22 517 252 1007 22 872 b 422 44 22 172 283 44 b 858 568 640 44 857 206 b 448 1007 858 767 744 1007 z m 471 132 b 172 523 378 132 172 169 b 468 919 172 715 240 919 b 772 525 692 919 772 733 b 471 132 772 310 645 132 z "},"Õ":{"ha":881,"x_min":0,"x_max":0,"o":"m 278 1061 b 314 1054 287 1050 299 1041 b 381 1087 337 1076 354 1087 b 529 1044 410 1087 477 1046 b 610 1065 561 1042 589 1050 b 620 1097 620 1072 624 1085 b 608 1132 620 1097 611 1123 b 585 1141 604 1141 599 1150 b 537 1120 574 1134 555 1121 b 360 1163 498 1118 424 1172 b 268 1119 326 1159 299 1145 b 263 1084 258 1110 256 1095 b 278 1061 263 1084 272 1067 z m 448 1007 b 22 517 252 1007 22 872 b 422 44 22 172 283 44 b 858 568 640 44 857 206 b 448 1007 858 767 744 1007 z m 471 132 b 172 523 378 132 172 169 b 468 919 172 715 240 919 b 772 525 692 919 772 733 b 471 132 772 310 645 132 z "},"Ö":{"ha":881,"x_min":0,"x_max":0,"o":"m 355 1041 b 414 1100 388 1041 414 1068 b 355 1158 414 1132 388 1158 b 297 1100 323 1158 297 1132 b 355 1041 297 1068 323 1041 z m 525 1041 b 583 1100 557 1041 583 1068 b 525 1158 583 1132 557 1158 b 466 1100 493 1158 466 1132 b 525 1041 466 1068 493 1041 z m 448 1007 b 22 517 252 1007 22 872 b 422 44 22 172 283 44 b 858 568 640 44 857 206 b 448 1007 859 767 744 1007 z m 471 132 b 172 523 379 132 172 169 b 468 919 172 715 240 919 b 772 525 692 919 772 733 b 471 132 772 310 645 132 z "},"×":{"ha":471,"x_min":0,"x_max":0,"o":"m 431 212 l 305 339 b 305 357 300 343 300 352 l 431 483 b 428 544 448 499 446 526 b 399 556 420 552 410 556 b 370 544 388 556 378 552 l 241 415 b 228 415 238 412 232 412 l 100 544 b 71 556 92 552 82 556 b 38 541 59 556 49 551 b 38 483 22 525 22 499 l 165 356 b 165 338 170 351 170 343 l 38 212 b 27 183 31 205 27 194 b 42 151 27 172 32 160 b 71 139 49 143 60 139 b 100 151 82 139 92 143 l 228 280 b 241 280 232 283 238 283 l 370 151 b 399 139 378 143 388 139 b 431 154 411 139 421 144 b 431 212 447 170 447 196 z "},"Ø":{"ha":899,"x_min":0,"x_max":0,"o":"m 786 850 l 856 931 b 780 977 891 973 831 1038 b 728 914 769 964 747 937 b 462 1007 664 970 577 1007 b 36 517 266 1007 36 872 b 115 232 36 397 68 304 l 38 147 b 109 101 3 106 54 36 l 168 167 b 436 44 254 81 362 44 b 872 568 654 44 871 206 b 786 850 872 663 846 767 z m 484 132 b 186 523 392 132 186 169 b 482 919 186 715 254 919 b 786 525 706 919 786 733 b 484 132 786 310 659 132 z "},"Ù":{"ha":679,"x_min":0,"x_max":0,"o":"m 368 1052 b 430 1065 397 1052 426 1061 b 383 1164 422 1086 393 1146 b 308 1191 374 1181 345 1191 b 242 1174 268 1191 243 1180 b 349 1055 270 1138 321 1081 b 368 1052 350 1054 356 1052 z m 632 923 b 504 923 631 1005 503 1006 b 503 572 507 806 506 689 b 494 369 501 505 498 437 b 422 188 477 306 457 245 b 214 115 380 120 290 50 b 126 354 151 170 135 276 b 121 684 113 464 114 575 b 148 940 126 770 133 856 b 74 961 156 988 82 1009 b 53 327 39 754 24 535 b 167 55 66 232 90 120 b 454 102 253 -17 434 33 b 499 27 444 70 470 35 b 578 71 535 16 565 39 b 616 286 604 139 609 215 b 631 563 625 378 629 471 b 632 923 634 683 635 803 z "},"Ú":{"ha":679,"x_min":0,"x_max":0,"o":"m 369 1054 b 478 1175 399 1082 449 1138 b 411 1191 476 1180 451 1191 b 336 1164 374 1191 345 1181 b 289 1067 327 1147 297 1087 b 351 1052 293 1061 322 1052 b 369 1054 363 1052 369 1054 z m 632 923 b 504 923 631 1005 503 1006 b 503 572 507 806 506 689 b 494 369 501 505 498 437 b 422 188 477 306 457 245 b 214 115 380 120 290 50 b 126 354 151 170 135 276 b 121 684 113 464 114 575 b 148 940 126 770 133 856 b 74 961 156 988 82 1009 b 53 327 39 754 24 535 b 167 55 66 232 90 120 b 454 102 253 -17 434 33 b 499 27 444 70 470 35 b 578 71 535 16 565 39 b 616 286 604 139 609 215 b 631 563 625 378 629 471 b 632 923 634 683 635 803 z "},"Û":{"ha":679,"x_min":0,"x_max":0,"o":"m 213 1029 b 263 1046 225 1029 248 1031 b 327 1132 270 1053 327 1132 b 398 1044 327 1132 392 1051 b 476 1063 422 1016 493 1041 b 386 1172 460 1085 386 1172 b 358 1187 375 1187 364 1187 b 293 1187 342 1187 293 1187 b 270 1174 284 1187 276 1180 b 183 1067 248 1148 204 1092 b 213 1029 168 1049 187 1029 z m 632 908 b 504 908 631 991 503 991 b 503 558 507 791 506 674 b 494 355 501 490 498 422 b 422 174 477 292 457 230 b 214 101 380 106 290 35 b 126 340 151 156 135 262 b 121 670 113 449 114 560 b 148 925 126 755 133 841 b 74 946 156 974 82 995 b 53 312 39 740 24 520 b 167 41 66 218 90 105 b 454 87 253 -32 434 19 b 499 12 444 55 470 21 b 578 57 535 2 565 25 b 616 272 604 124 609 201 b 631 548 625 364 629 456 b 632 908 634 668 635 788 z "},"Ü":{"ha":679,"x_min":0,"x_max":0,"o":"m 253 1029 b 311 1087 285 1029 311 1055 b 253 1145 311 1119 285 1145 b 194 1087 220 1145 194 1119 b 253 1029 194 1055 220 1029 z m 422 1029 b 480 1087 454 1029 480 1055 b 422 1145 480 1119 454 1145 b 363 1087 390 1145 363 1119 b 422 1029 363 1055 390 1029 z m 632 908 b 504 908 631 991 503 991 b 503 558 507 791 506 674 b 494 355 502 490 498 422 b 422 174 477 292 457 230 b 214 101 380 106 290 35 b 126 340 151 156 135 262 b 121 670 113 449 114 560 b 148 925 126 755 133 841 b 74 946 156 974 82 995 b 53 312 39 739 24 520 b 167 41 66 218 90 105 b 454 87 253 -32 434 19 b 499 12 444 55 470 21 b 578 57 535 2 565 25 b 616 272 604 124 609 201 b 631 548 625 364 629 456 b 632 908 634 668 635 788 z "},"Ý":{"ha":628,"x_min":0,"x_max":0,"o":"m 332 1041 b 420 1151 362 1075 398 1122 b 377 1190 435 1170 418 1190 b 302 1163 340 1190 311 1180 b 252 1053 293 1146 260 1073 b 332 1041 239 1022 316 1022 z m 618 918 b 565 948 613 941 586 954 b 535 898 542 942 532 920 b 535 899 535 899 535 900 b 338 527 529 764 488 527 b 154 884 158 527 138 786 b 105 971 161 922 144 961 b 17 922 70 981 23 960 b 77 555 -4 797 6 664 b 186 444 105 511 141 473 b 262 412 206 432 259 412 b 247 45 262 408 248 123 b 389 45 244 -47 387 -47 b 405 413 391 124 399 357 b 617 836 589 498 600 699 b 618 918 621 870 624 884 z "},"ß":{"ha":682,"x_min":0,"x_max":0,"o":"m 559 429 b 474 492 533 453 504 473 b 465 498 471 494 468 496 b 455 818 529 599 560 730 b 117 790 355 901 202 890 b 46 537 58 721 51 624 b 49 234 40 436 44 335 b 63 29 53 173 57 90 b 191 29 66 -5 194 -6 b 171 414 179 149 172 293 b 175 544 171 457 172 501 b 213 706 176 564 178 667 b 317 746 242 738 278 751 b 366 725 330 744 350 737 b 392 695 375 719 389 702 b 328 526 415 637 364 567 b 328 436 307 502 301 459 b 458 348 367 402 425 375 b 533 165 508 306 568 225 b 366 189 484 79 373 175 b 255 124 351 220 240 155 b 580 23 311 10 471 -57 b 559 429 715 121 668 331 z "},"à":{"ha":569,"x_min":0,"x_max":0,"o":"m 330 693 b 279 803 321 713 289 786 b 204 830 270 820 242 830 b 161 791 164 830 147 810 b 250 681 184 762 220 714 b 330 693 266 662 343 662 z m 465 594 b 401 529 397 594 401 529 b 235 576 355 565 294 584 b 53 399 142 562 83 480 b 53 112 20 311 12 200 b 264 6 90 32 176 -9 b 390 85 317 15 358 46 b 389 62 390 78 389 70 b 517 62 389 -21 517 -21 b 529 530 518 218 523 374 b 465 594 530 564 498 594 z m 393 274 b 363 162 392 235 383 196 b 240 88 342 125 304 88 b 139 328 171 88 118 156 b 240 500 146 389 178 473 b 397 412 294 525 391 492 b 393 274 395 366 394 320 z "},"á":{"ha":569,"x_min":0,"x_max":0,"o":"m 403 830 b 328 803 366 830 337 820 b 278 693 319 786 287 713 b 358 681 265 662 342 662 b 447 791 388 714 424 762 b 403 830 461 810 444 830 z m 465 594 b 401 529 397 594 401 529 b 235 576 355 565 294 584 b 53 399 142 562 83 480 b 53 112 20 311 12 200 b 264 6 90 32 176 -9 b 390 85 317 15 358 46 b 389 62 390 77 389 70 b 517 62 389 -21 517 -21 b 529 530 518 218 523 374 b 465 594 530 564 498 594 z m 393 274 b 364 162 392 235 383 196 b 240 88 342 125 304 88 b 139 328 171 88 118 156 b 240 500 146 389 178 473 b 397 412 295 525 391 492 b 393 274 395 366 394 320 z "},"â":{"ha":569,"x_min":0,"x_max":0,"o":"m 456 703 b 366 812 440 725 366 812 b 338 827 356 827 344 827 b 273 827 322 827 273 827 b 250 814 264 827 256 820 b 163 706 228 788 184 732 b 193 669 149 689 167 669 b 243 686 205 669 228 671 b 308 772 251 693 308 772 b 378 684 308 772 372 691 b 456 703 402 656 473 680 z m 465 594 b 401 529 397 594 401 529 b 235 576 355 565 294 584 b 53 399 142 562 83 480 b 53 112 20 311 12 200 b 264 6 90 32 176 -9 b 390 85 317 15 358 46 b 389 62 390 77 389 70 b 517 62 389 -21 517 -21 b 529 530 518 218 523 374 b 465 594 530 564 498 594 z m 393 274 b 364 162 392 235 383 196 b 240 88 342 125 304 88 b 139 328 171 88 118 156 b 240 500 146 389 178 473 b 397 412 294 525 391 492 b 393 274 395 366 394 320 z "},"ã":{"ha":569,"x_min":0,"x_max":0,"o":"m 146 688 b 182 681 155 677 168 668 b 250 714 206 703 222 714 b 398 671 279 714 346 673 b 478 692 429 669 457 677 b 488 724 488 699 492 712 b 476 759 488 724 480 750 b 453 768 472 768 468 777 b 406 747 442 761 423 748 b 228 790 366 745 292 799 b 136 746 194 786 167 772 b 131 711 126 737 124 722 b 146 688 131 711 140 694 z m 465 594 b 401 529 397 594 401 529 b 235 576 355 565 294 584 b 53 399 142 562 83 480 b 53 112 20 311 12 200 b 264 6 90 32 176 -9 b 390 85 317 15 358 46 b 389 62 390 77 389 70 b 517 62 389 -21 517 -21 b 529 530 518 218 523 374 b 465 594 530 564 498 594 z m 393 274 b 364 162 392 235 383 196 b 240 88 342 125 304 88 b 139 328 171 88 118 156 b 240 500 146 389 178 473 b 397 412 294 525 391 492 b 393 274 395 366 394 320 z "},"ä":{"ha":569,"x_min":0,"x_max":0,"o":"m 218 668 b 276 726 250 668 276 694 b 218 784 276 758 250 784 b 160 726 186 784 160 758 b 218 668 160 694 186 668 z m 387 668 b 445 726 419 668 445 694 b 387 784 445 758 419 784 b 329 726 355 784 329 758 b 387 668 329 694 355 668 z m 465 594 b 401 529 397 594 401 529 b 235 576 355 565 294 584 b 53 399 142 562 83 480 b 53 112 20 311 12 200 b 264 6 90 32 176 -9 b 390 85 317 15 358 46 b 389 62 390 77 389 70 b 517 62 389 -21 517 -21 b 529 530 518 218 523 374 b 465 594 530 564 498 594 z m 393 274 b 364 162 392 235 383 196 b 240 88 342 125 304 88 b 139 328 171 88 118 156 b 240 500 146 389 178 473 b 397 412 294 525 391 492 b 393 274 395 366 394 320 z "},"å":{"ha":569,"x_min":0,"x_max":0,"o":"m 400 818 b 358 841 397 820 378 838 b 340 843 352 842 346 843 b 262 809 311 843 282 830 b 232 728 242 789 231 760 b 263 655 233 699 244 673 b 331 629 281 638 305 629 b 342 630 335 629 339 629 b 416 674 370 633 401 651 b 400 818 446 721 439 779 z m 390 715 b 334 675 382 693 361 677 b 290 697 316 675 300 683 b 294 780 271 723 273 756 b 336 797 307 794 324 797 b 360 793 346 797 356 795 b 390 715 394 775 400 735 z m 465 594 b 401 529 397 594 401 529 b 235 576 355 565 294 584 b 53 399 142 562 83 480 b 53 112 20 311 12 200 b 264 6 90 32 176 -9 b 390 85 317 15 358 46 b 389 62 390 77 389 70 b 517 62 389 -21 517 -21 b 529 530 518 218 523 374 b 465 594 530 564 498 594 z m 393 274 b 364 162 392 235 383 196 b 240 88 342 125 304 88 b 139 328 171 88 118 156 b 240 500 146 389 178 473 b 397 412 295 525 391 492 b 393 274 395 366 394 320 z "},"æ":{"ha":892,"x_min":0,"x_max":0,"o":"m 847 240 b 800 214 828 245 803 235 b 698 88 798 203 783 130 b 522 241 633 56 518 99 b 782 330 613 226 724 257 b 826 463 812 368 831 415 b 724 595 822 515 790 577 b 521 560 642 618 567 591 b 465 594 509 580 488 594 b 401 529 397 594 401 529 b 235 576 355 565 294 584 b 53 399 142 562 83 480 b 53 112 20 311 12 200 b 264 6 90 32 176 -9 b 390 85 317 15 358 46 b 389 62 390 77 389 70 b 510 31 389 -9 483 -19 b 610 1 537 15 570 4 b 739 22 649 -3 703 1 b 740 23 739 22 740 23 b 789 53 757 31 774 41 b 874 193 831 87 864 139 b 847 240 877 213 868 236 z m 619 506 b 709 518 658 529 687 530 b 534 316 796 466 733 284 b 619 506 540 389 561 472 z m 393 274 b 364 162 392 235 383 196 b 240 88 342 125 304 88 b 139 328 171 88 118 156 b 240 500 146 389 178 473 b 397 412 294 525 391 492 b 393 274 395 366 394 320 z "},"ç":{"ha":400,"x_min":0,"x_max":0,"o":"m 330 83 b 163 228 260 62 174 88 b 249 501 157 305 167 453 b 339 512 288 524 328 514 b 386 540 365 508 380 518 b 354 590 391 558 385 583 b 144 551 267 611 190 583 b 27 271 53 487 33 369 b 91 66 23 198 38 120 b 204 6 122 35 162 16 b 204 -44 204 -16 204 -42 b 226 -72 204 -57 213 -69 b 274 -118 268 -82 275 -102 b 240 -145 272 -134 259 -145 b 211 -136 231 -145 220 -142 b 194 -131 206 -133 200 -131 b 175 -144 186 -131 179 -136 b 178 -174 170 -154 172 -166 b 243 -199 191 -189 217 -199 b 289 -188 260 -199 276 -195 b 331 -120 312 -174 328 -149 b 306 -48 335 -92 325 -66 b 265 -23 286 -29 265 -23 l 265 -2 b 369 17 300 -3 340 0 b 330 83 412 42 378 97 z "},"è":{"ha":521,"x_min":0,"x_max":0,"o":"m 351 693 b 301 803 343 713 310 786 b 226 830 292 820 263 830 b 183 791 185 830 168 810 b 271 681 205 762 242 714 b 351 693 287 662 364 662 z m 476 230 b 429 203 458 234 433 224 b 328 77 427 192 412 119 b 152 230 263 45 148 88 b 412 320 243 216 353 246 b 456 453 441 357 460 404 b 353 585 451 504 419 567 b 144 546 267 608 190 578 b 26 265 66 492 26 396 b 239 -10 26 131 84 3 b 368 11 279 -13 333 -10 b 370 12 369 12 369 12 b 418 42 387 20 403 30 b 503 182 461 76 493 129 b 476 230 507 202 498 225 z m 248 495 b 338 507 287 518 316 520 b 163 305 425 455 362 274 b 248 495 169 378 191 462 z "},"é":{"ha":521,"x_min":0,"x_max":0,"o":"m 371 830 b 296 803 334 830 305 820 b 246 693 287 786 255 713 b 326 681 233 662 310 662 b 414 791 356 714 392 762 b 371 830 429 810 412 830 z m 476 230 b 429 203 458 234 433 224 b 328 77 427 192 412 119 b 152 230 263 45 148 88 b 412 320 243 216 353 246 b 456 453 441 357 460 404 b 353 585 451 504 419 567 b 144 546 267 608 190 578 b 26 265 66 492 26 396 b 239 -10 26 131 84 3 b 368 11 279 -13 333 -10 b 370 12 369 12 369 12 b 418 42 387 20 403 30 b 503 182 461 76 493 129 b 476 230 507 202 498 225 z m 248 495 b 338 507 287 518 316 520 b 163 305 425 455 362 274 b 248 495 169 378 191 462 z "},"ê":{"ha":521,"x_min":0,"x_max":0,"o":"m 413 703 b 323 812 397 725 323 812 b 295 827 312 827 301 827 b 230 827 279 827 230 827 b 207 814 221 827 213 820 b 120 706 185 788 141 732 b 149 669 105 689 123 669 b 200 686 162 669 184 671 b 264 772 207 693 264 772 b 335 684 264 772 329 691 b 413 703 359 656 430 680 z m 476 230 b 429 203 458 234 433 224 b 328 77 427 192 412 119 b 152 230 263 45 148 88 b 412 320 243 216 353 246 b 456 453 441 357 460 404 b 353 585 451 504 419 567 b 144 546 267 608 190 578 b 26 265 66 492 26 396 b 239 -10 26 131 84 3 b 368 11 279 -13 333 -10 b 370 12 369 12 369 12 b 418 42 387 20 403 30 b 503 182 461 76 493 129 b 476 230 507 202 498 225 z m 248 495 b 338 507 287 518 316 520 b 163 305 425 455 362 274 b 248 495 169 378 191 462 z "},"ë":{"ha":521,"x_min":0,"x_max":0,"o":"m 181 669 b 239 727 213 669 239 695 b 181 785 239 759 213 785 b 122 727 148 785 122 759 b 181 669 122 695 148 669 z m 350 669 b 408 727 382 669 408 695 b 350 785 408 759 382 785 b 291 727 318 785 291 759 b 350 669 291 695 318 669 z m 476 230 b 429 203 458 234 433 224 b 328 77 427 192 412 119 b 152 230 263 45 148 88 b 412 320 243 216 353 246 b 456 453 441 357 460 404 b 353 585 451 504 419 567 b 144 546 267 608 190 578 b 26 265 66 492 26 396 b 239 -10 26 131 84 3 b 368 11 279 -13 333 -10 b 370 12 369 12 369 12 b 418 42 387 20 403 30 b 503 182 461 76 493 129 b 476 230 507 202 498 225 z m 248 495 b 338 507 287 518 316 520 b 163 305 425 455 362 274 b 248 495 169 378 191 462 z "},"ì":{"ha":221,"x_min":0,"x_max":0,"o":"m 159 693 b 109 803 151 713 118 786 b 34 830 100 820 71 830 b -9 791 -6 830 -23 810 b 79 681 14 762 50 714 b 159 693 96 662 172 662 z m 113 595 b 49 531 78 595 49 566 b 43 65 48 376 47 220 b 107 1 41 31 73 1 b 171 65 142 1 169 30 b 177 531 175 220 176 376 b 113 595 177 566 147 595 z "},"í":{"ha":222,"x_min":0,"x_max":0,"o":"m 194 830 b 119 803 157 830 128 820 b 69 693 110 786 77 713 b 149 681 56 662 133 662 b 237 791 178 714 214 762 b 194 830 251 810 234 830 z m 114 595 b 50 531 79 595 50 566 b 43 65 48 376 48 220 b 107 1 42 31 73 1 b 171 65 143 1 170 30 b 178 531 176 220 176 376 b 114 595 178 566 148 595 z "},"î":{"ha":221,"x_min":0,"x_max":0,"o":"m 258 703 b 168 812 242 725 168 812 b 140 827 157 827 146 827 b 75 827 124 827 75 827 b 52 814 66 827 58 820 b -35 706 30 788 -14 732 b -5 669 -50 689 -32 669 b 45 686 7 669 29 671 b 109 772 52 693 109 772 b 180 684 109 772 174 691 b 258 703 204 656 275 680 z m 113 595 b 49 531 78 595 49 566 b 42 65 47 376 47 220 b 106 1 41 31 72 1 b 170 65 142 1 169 30 b 177 531 175 220 175 376 b 113 595 177 566 147 595 z "},"ï":{"ha":221,"x_min":0,"x_max":0,"o":"m 85 727 b 26 785 85 759 59 785 b -32 727 -6 785 -32 759 b 26 669 -32 695 -6 669 b 85 727 59 669 85 695 z m 196 785 b 137 727 163 785 137 759 b 196 668 137 695 163 668 b 254 727 228 668 254 695 b 196 785 254 759 228 785 z m 113 595 b 49 531 78 595 49 566 b 42 65 47 376 47 220 b 106 1 41 31 72 1 b 170 65 142 1 169 30 b 177 531 175 220 175 376 b 113 595 177 566 147 595 z "},"ñ":{"ha":492,"x_min":0,"x_max":0,"o":"m 87 688 b 124 681 97 677 109 668 b 191 714 147 703 163 714 b 339 671 220 714 287 673 b 419 692 371 669 398 677 b 430 724 429 699 434 712 b 417 759 430 724 421 750 b 395 768 414 768 409 777 b 347 747 383 761 365 748 b 170 790 307 745 234 799 b 77 746 136 786 108 772 b 72 711 67 737 65 722 b 87 688 73 711 81 694 z m 406 519 b 218 583 367 581 287 611 b 176 557 202 577 188 568 b 114 604 168 584 143 604 b 50 540 79 604 51 575 b 46 60 46 380 46 220 b 174 60 46 -23 174 -23 b 177 422 174 181 175 302 b 231 503 188 454 204 483 b 340 480 262 527 316 518 b 377 273 376 421 376 340 b 369 -3 378 181 370 89 b 446 -3 369 -52 446 -53 b 454 270 446 88 454 179 b 406 519 453 351 450 447 z "},"ò":{"ha":581,"x_min":0,"x_max":0,"o":"m 342 694 b 292 804 333 714 301 787 b 217 831 283 821 254 831 b 174 792 176 831 159 811 b 262 681 196 763 232 715 b 342 694 278 663 355 663 z m 303 594 b 300 593 302 594 301 593 b 299 594 300 593 299 594 b 34 368 169 592 62 493 b 70 109 15 283 19 183 b 278 4 109 51 199 -1 b 282 4 280 4 281 4 b 556 323 414 2 556 98 b 303 594 557 446 475 583 z m 310 91 b 152 295 197 91 138 183 b 330 479 161 365 198 487 b 469 299 437 471 469 384 b 310 91 469 213 437 91 z "},"ó":{"ha":581,"x_min":0,"x_max":0,"o":"m 415 831 b 340 804 377 831 349 821 b 290 694 331 787 298 714 b 370 681 277 663 353 663 b 458 792 399 715 435 763 b 415 831 472 811 455 831 z m 303 594 b 300 593 302 594 301 593 b 299 594 300 593 299 594 b 34 368 169 592 62 493 b 70 109 15 283 19 183 b 278 4 109 51 199 -1 b 282 4 280 4 281 4 b 556 323 414 2 556 98 b 303 594 557 446 475 583 z m 310 91 b 152 295 197 91 138 183 b 330 479 161 365 198 487 b 469 299 437 471 469 384 b 310 91 469 213 437 91 z "},"ô":{"ha":581,"x_min":0,"x_max":0,"o":"m 438 704 b 348 813 422 726 348 813 b 320 828 337 828 326 828 b 254 828 304 828 254 828 b 232 815 246 828 237 821 b 145 707 210 789 166 733 b 174 670 130 690 148 670 b 225 687 187 670 209 672 b 289 773 232 694 289 773 b 360 685 289 773 354 691 b 438 704 384 657 455 681 z m 303 594 b 300 593 302 594 301 593 b 299 594 300 593 299 594 b 34 368 169 592 62 493 b 70 109 15 283 19 183 b 278 4 109 51 199 -1 b 282 4 280 4 281 4 b 556 323 414 2 556 98 b 303 594 557 446 475 583 z m 310 91 b 152 295 197 91 138 183 b 330 479 161 365 198 487 b 469 299 437 471 469 384 b 310 91 469 213 437 91 z "},"õ":{"ha":581,"x_min":0,"x_max":0,"o":"m 128 689 b 164 682 137 678 149 669 b 231 715 187 704 204 715 b 379 672 260 715 327 674 b 460 693 411 670 439 678 b 470 725 470 700 474 713 b 458 760 470 725 461 750 b 435 769 454 769 449 778 b 387 748 424 762 405 749 b 210 791 347 746 274 800 b 118 747 176 787 149 773 b 113 712 108 738 106 723 b 128 689 113 712 122 695 z m 303 594 b 300 593 302 594 301 593 b 299 594 300 593 299 594 b 34 368 169 592 62 493 b 70 109 15 283 19 183 b 278 4 109 51 199 -1 b 282 4 280 4 281 4 b 556 323 414 2 556 98 b 303 594 557 446 475 583 z m 310 91 b 152 295 197 91 138 183 b 330 479 161 365 198 487 b 469 299 437 471 469 384 b 310 91 469 213 437 91 z "},"ö":{"ha":581,"x_min":0,"x_max":0,"o":"m 205 669 b 264 728 238 669 264 696 b 205 786 264 760 238 786 b 147 728 173 786 147 760 b 205 669 147 696 173 669 z m 375 669 b 433 728 407 669 433 696 b 375 786 433 760 407 786 b 316 728 343 786 316 760 b 375 669 316 696 343 669 z m 303 594 b 300 593 302 594 301 593 b 299 594 300 593 299 594 b 34 368 169 592 62 493 b 70 109 15 283 19 183 b 278 4 109 51 199 -1 b 282 4 280 4 281 4 b 556 323 414 2 556 98 b 303 594 557 446 475 583 z m 310 91 b 152 295 197 91 138 183 b 330 479 161 365 198 487 b 469 299 437 471 469 384 b 310 91 469 213 437 91 z "},"÷":{"ha":583,"x_min":0,"x_max":0,"o":"m 528 398 l 54 398 b 11 354 31 398 11 378 b 54 311 11 331 31 311 l 528 311 b 572 354 552 311 572 331 b 528 398 572 378 552 398 z m 291 224 b 249 182 268 224 249 205 b 291 139 249 158 268 139 b 334 182 315 139 334 158 b 291 224 334 205 315 224 z m 291 480 b 334 523 315 480 334 499 b 291 565 334 546 315 565 b 249 523 268 565 249 546 b 291 480 249 499 268 480 z "},"ø":{"ha":597,"x_min":0,"x_max":0,"o":"m 481 604 l 441 552 b 307 594 405 575 360 590 b 304 593 306 594 305 594 b 303 594 304 593 303 594 b 38 368 173 592 66 493 b 74 109 19 283 23 183 b 97 82 80 100 88 91 l 38 7 b 114 -22 4 -35 61 -90 l 162 34 b 283 4 200 14 242 1 b 286 4 284 4 285 4 b 561 323 418 2 560 98 b 504 493 561 382 542 444 l 565 570 b 481 604 599 613 533 670 z m 314 91 b 156 295 201 91 142 183 b 334 479 165 365 202 487 b 473 299 442 471 473 384 b 314 91 473 213 441 91 z "},"ù":{"ha":488,"x_min":0,"x_max":0,"o":"m 277 792 b 202 819 268 809 239 819 b 135 802 161 819 136 808 b 243 682 164 766 214 709 b 261 680 244 682 249 680 b 323 693 291 680 320 689 b 277 792 316 714 287 774 z m 381 594 b 317 530 347 594 318 564 b 315 222 317 427 315 324 b 210 120 314 193 297 120 b 108 269 109 120 109 252 b 112 472 107 289 112 424 b 36 472 113 521 36 521 b 36 213 35 386 24 298 b 164 53 47 137 90 77 b 315 79 217 35 273 44 b 376 33 322 53 348 33 b 440 97 412 33 439 62 b 445 530 444 241 445 385 b 381 594 446 564 416 594 z "},"ú":{"ha":488,"x_min":0,"x_max":0,"o":"m 313 819 b 238 792 276 819 247 809 b 192 695 229 775 200 715 b 254 680 195 689 224 680 b 272 682 266 680 271 682 b 380 803 301 710 351 766 b 313 819 379 808 354 819 z m 381 594 b 317 530 347 594 318 564 b 315 222 317 427 315 324 b 210 120 314 193 297 120 b 108 269 109 120 109 252 b 112 472 107 289 112 424 b 36 472 113 521 36 521 b 36 213 35 386 24 298 b 164 53 47 137 90 77 b 315 79 217 35 273 44 b 376 33 322 53 348 33 b 440 97 412 33 439 62 b 445 530 444 241 445 385 b 381 594 445 564 416 594 z "},"û":{"ha":486,"x_min":0,"x_max":0,"o":"m 111 702 b 161 720 123 702 145 705 b 225 806 168 726 225 806 b 296 718 225 806 290 724 b 374 737 320 690 391 714 b 284 846 358 759 284 846 b 256 860 273 860 262 860 b 191 860 240 860 191 860 b 168 847 182 860 174 854 b 81 740 146 821 102 765 b 111 702 66 722 85 702 z m 381 628 b 317 564 347 628 318 598 b 315 256 317 461 315 359 b 210 154 314 227 297 154 b 108 303 109 154 109 286 b 112 506 107 323 112 459 b 36 506 113 555 36 556 b 36 247 35 420 24 333 b 164 87 47 171 90 112 b 315 114 217 69 273 78 b 376 67 322 87 348 67 b 440 131 412 67 439 96 b 445 564 444 275 445 419 b 381 628 446 598 416 628 z "},"ü":{"ha":486,"x_min":0,"x_max":0,"o":"m 159 702 b 218 760 191 702 218 728 b 159 819 218 793 191 819 b 101 760 127 819 101 793 b 159 702 101 728 127 702 z m 329 702 b 387 760 361 702 387 728 b 329 819 387 793 361 819 b 270 760 296 819 270 793 b 329 702 270 728 296 702 z m 381 628 b 317 564 347 628 317 598 b 315 256 317 461 315 359 b 210 154 314 227 297 154 b 108 303 109 154 109 286 b 112 506 107 323 112 459 b 36 506 113 555 36 556 b 36 247 35 420 24 332 b 164 87 47 171 90 111 b 315 113 217 69 273 78 b 376 67 322 87 348 67 b 440 131 412 67 439 96 b 445 564 444 275 445 419 b 381 628 445 598 416 628 z "},"ý":{"ha":485,"x_min":0,"x_max":0,"o":"m 255 714 b 343 825 284 748 321 796 b 300 864 358 843 341 864 b 225 837 263 864 234 853 b 175 727 216 820 183 747 b 255 714 162 696 239 696 z m 314 576 b 310 424 312 519 311 481 b 239 344 310 396 296 345 b 116 578 111 340 116 562 b 77 617 116 599 98 617 b 39 578 56 617 39 599 b 63 408 39 521 44 462 b 129 302 77 368 97 329 b 308 288 181 257 251 251 b 306 232 307 269 307 251 b 303 65 305 177 305 121 b 278 -23 302 31 295 4 b 276 -25 277 -24 277 -24 b 267 -33 273 -28 270 -31 b 265 -35 267 -34 266 -34 b 264 -36 265 -35 265 -35 b 248 -45 259 -39 254 -42 b 247 -46 247 -46 247 -45 b 240 -48 244 -47 242 -48 b 224 -52 238 -49 226 -53 b 229 -51 231 -51 233 -51 b 218 -52 225 -51 222 -51 b 203 -51 213 -52 208 -52 b 175 -47 192 -51 186 -50 b 150 -38 165 -45 155 -41 b 126 -24 142 -34 133 -30 b 117 -18 124 -23 115 -17 b 110 -12 119 -20 111 -13 b 92 5 104 -7 98 -1 b 86 12 90 8 88 10 b 82 19 86 13 82 18 b 29 33 70 36 48 44 b 15 -20 12 23 3 -3 b 158 -121 50 -70 100 -107 b 161 -123 159 -122 160 -122 b 360 -98 202 -140 306 -144 b 434 202 440 -31 431 94 b 441 572 436 326 439 449 b 314 576 443 655 315 659 z "},"ÿ":{"ha":485,"x_min":0,"x_max":0,"o":"m 141 702 b 199 760 173 702 199 728 b 141 819 199 793 173 819 b 83 760 109 819 83 793 b 141 702 83 728 109 702 z m 310 702 b 368 760 342 702 368 728 b 310 819 368 793 342 819 b 252 760 278 819 252 793 b 310 702 252 728 278 702 z m 314 576 b 310 424 312 519 311 481 b 239 344 310 396 296 345 b 116 578 111 340 116 562 b 77 617 116 599 98 617 b 39 578 56 617 39 599 b 63 408 39 521 44 462 b 129 302 77 368 97 329 b 308 288 181 257 251 251 b 306 232 307 269 307 251 b 303 65 305 177 305 121 b 278 -23 302 31 295 4 b 276 -25 277 -24 277 -24 b 267 -33 273 -28 270 -31 b 265 -35 267 -34 266 -34 b 264 -36 265 -35 265 -35 b 248 -45 259 -39 254 -42 b 247 -46 247 -46 247 -45 b 240 -48 244 -47 242 -48 b 224 -52 238 -49 226 -53 b 229 -51 231 -51 233 -51 b 218 -52 225 -51 222 -51 b 203 -51 213 -52 208 -52 b 175 -47 192 -51 186 -50 b 150 -38 165 -45 155 -41 b 126 -24 142 -34 133 -30 b 117 -18 124 -23 115 -17 b 110 -12 119 -20 111 -13 b 92 5 104 -7 98 -1 b 86 12 90 8 88 10 b 82 19 86 13 82 18 b 29 33 70 36 48 44 b 15 -20 12 23 3 -3 b 158 -121 50 -70 100 -107 b 161 -123 159 -122 160 -122 b 360 -98 202 -140 306 -144 b 434 202 440 -31 431 94 b 441 572 436 326 439 449 b 314 576 443 655 315 659 z "},"ı":{"ha":218,"x_min":0,"x_max":0,"o":"m 112 628 b 48 564 77 628 49 598 b 42 98 47 408 46 253 b 106 33 41 63 72 33 b 170 98 141 33 169 63 b 176 564 174 253 175 408 b 112 628 177 598 147 628 z "},"Œ":{"ha":1310,"x_min":0,"x_max":0,"o":"m 1276 79 b 908 79 1153 79 1031 79 b 901 560 904 239 901 400 b 1155 560 986 560 1071 560 b 1155 637 1205 560 1205 637 b 902 637 1071 637 986 637 b 908 911 903 728 904 820 b 1233 911 1016 911 1125 911 b 1233 988 1282 911 1283 988 b 880 988 1115 988 998 988 b 813 988 860 999 834 999 b 783 988 803 988 793 988 b 780 911 735 988 734 915 b 778 840 779 888 779 864 b 446 1007 714 936 607 1007 b 21 517 250 1007 21 872 b 421 44 21 172 282 44 b 776 244 557 44 693 108 b 780 63 777 184 779 123 b 856 2 782 18 821 -2 b 1276 2 996 2 1136 2 b 1276 79 1325 2 1325 79 z m 469 132 b 170 523 377 132 170 169 b 467 919 170 715 239 919 b 771 525 691 919 771 733 b 469 132 771 310 644 132 z "},"œ":{"ha":969,"x_min":0,"x_max":0,"o":"m 924 237 b 877 210 905 242 881 232 b 776 85 875 200 860 127 b 600 238 711 53 596 96 b 860 327 690 223 801 254 b 904 460 889 365 908 412 b 801 592 899 512 867 574 b 591 553 715 616 638 585 b 517 468 560 532 536 503 b 303 594 477 535 406 587 b 300 593 302 594 301 594 b 299 594 300 593 299 594 b 34 368 169 592 62 493 b 70 109 15 283 19 183 b 278 4 109 51 199 -1 b 282 4 280 4 281 4 b 505 123 365 3 451 40 b 687 -2 536 56 594 5 b 816 19 727 -6 781 -2 b 818 20 817 19 817 20 b 866 50 835 28 851 37 b 951 190 909 84 941 136 b 924 237 955 210 946 232 z m 696 503 b 786 514 735 526 764 527 b 611 313 873 463 810 281 b 696 503 617 386 639 469 z m 310 91 b 152 295 197 91 138 183 b 330 479 161 365 198 487 b 469 299 437 471 469 384 b 310 91 469 213 437 91 z "},"Š":{"ha":461,"x_min":0,"x_max":0,"o":"m 174 1044 b 202 1029 185 1029 196 1029 b 267 1029 218 1029 267 1029 b 290 1042 276 1029 284 1035 b 377 1149 312 1068 356 1124 b 347 1187 392 1167 373 1187 b 297 1170 335 1187 313 1185 b 233 1084 290 1163 233 1084 b 162 1172 233 1084 168 1165 b 84 1152 138 1199 67 1175 b 174 1044 100 1130 174 1044 z m 439 900 b 258 973 405 954 322 976 b 215 967 243 973 228 971 b 38 749 138 947 36 892 b 184 451 39 617 112 537 b 312 147 327 282 330 191 b 227 82 296 109 263 83 b 197 87 216 81 206 83 b 84 207 151 107 110 151 b 57 225 78 220 69 226 b 22 204 43 225 29 216 b 21 170 15 194 15 182 b 248 5 59 87 147 -2 b 405 87 327 10 375 37 b 288 511 495 241 350 438 b 153 718 273 529 177 654 b 202 883 122 800 167 862 b 265 901 222 894 244 900 b 383 856 304 903 343 888 b 411 847 393 848 404 847 b 444 865 426 848 439 855 b 439 900 450 877 445 890 z "},"š":{"ha":353,"x_min":0,"x_max":0,"o":"m 130 717 b 158 702 141 702 152 702 b 224 702 175 702 224 702 b 247 716 233 702 241 709 b 334 823 268 741 313 797 b 304 860 348 841 330 860 b 253 843 292 860 269 858 b 189 757 246 836 189 757 b 119 845 189 757 124 839 b 40 826 95 873 23 849 b 130 717 57 804 130 717 z m 175 630 b 48 486 116 616 57 576 b 134 286 41 414 87 340 b 151 86 269 132 184 69 b 92 154 123 99 103 127 b 23 121 73 200 4 167 b 181 4 48 59 110 -1 b 309 186 269 9 325 105 b 198 374 294 260 241 315 b 149 467 178 402 160 434 b 176 548 135 509 158 539 b 270 528 225 574 265 532 b 329 574 301 504 354 531 b 175 630 302 622 225 641 z "},"Ÿ":{"ha":625,"x_min":0,"x_max":0,"o":"m 254 1029 b 313 1087 287 1029 313 1055 b 254 1145 313 1119 287 1145 b 196 1087 222 1145 196 1119 b 254 1029 196 1055 222 1029 z m 424 1029 b 482 1087 456 1029 482 1055 b 424 1145 482 1119 456 1145 b 365 1087 391 1145 365 1119 b 424 1029 365 1055 391 1029 z m 616 932 b 564 962 612 955 584 968 b 534 913 541 956 531 934 b 533 913 533 914 533 914 b 336 541 528 778 486 541 b 153 898 156 541 136 800 b 103 986 159 936 143 975 b 15 936 69 995 22 974 b 75 569 -6 811 4 678 b 184 459 104 525 140 487 b 260 426 205 446 257 427 b 245 59 260 423 247 137 b 388 59 243 -33 386 -33 b 404 427 389 139 398 371 b 616 851 588 513 599 713 b 616 932 620 884 622 899 z "},"Ž":{"ha":658,"x_min":0,"x_max":0,"o":"m 322 1044 b 350 1029 333 1029 344 1029 b 415 1029 366 1029 415 1029 b 438 1042 424 1029 432 1035 b 525 1149 460 1068 504 1124 b 495 1187 540 1167 521 1187 b 445 1170 483 1187 461 1185 b 381 1084 438 1163 381 1084 b 310 1172 381 1084 316 1165 b 232 1152 286 1199 215 1175 b 322 1044 248 1130 322 1044 z m 621 956 b 579 966 607 965 592 967 b 137 975 431 966 284 971 b 137 889 82 976 82 891 b 489 881 255 886 372 883 b 11 125 319 636 178 372 b 80 17 -22 77 -2 17 b 588 17 250 17 419 17 b 588 103 643 17 643 103 b 166 103 448 103 307 103 b 647 859 330 352 472 617 b 621 956 669 890 652 938 z "},"ž":{"ha":479,"x_min":0,"x_max":0,"o":"m 203 717 b 231 702 214 702 225 702 b 297 702 247 702 297 702 b 319 716 305 702 314 709 b 406 823 341 741 385 797 b 377 860 421 841 403 860 b 326 843 364 860 342 858 b 262 757 319 836 262 757 b 191 845 262 757 197 839 b 113 826 167 873 96 849 b 203 717 129 804 203 717 z m 458 524 b 438 611 477 552 463 595 b 404 619 426 619 415 621 b 112 628 306 620 209 627 b 112 551 67 628 67 551 b 329 544 184 551 257 547 b 288 487 316 525 302 506 b 191 356 256 443 224 400 b 15 105 131 274 68 193 b 36 18 -2 77 10 35 b 67 10 46 11 57 9 b 71 9 68 9 70 9 b 409 9 184 9 296 9 b 409 85 453 9 453 85 b 143 85 320 85 231 85 b 280 276 185 149 230 209 b 458 524 341 357 403 438 z "},"–":{"ha":593,"x_min":0,"x_max":0,"o":"m 524 504 l 48 499 b 68 421 4 499 -2 421 l 545 417 b 524 504 589 417 592 504 z "},"—":{"ha":725,"x_min":0,"x_max":0,"o":"m 644 504 l 56 499 b 80 421 2 499 -6 421 l 669 417 b 644 504 724 417 728 504 z "},"‘":{"ha":160,"x_min":0,"x_max":0,"o":"m 118 894 b 72 882 103 902 80 899 b 32 776 56 848 40 813 b 61 635 22 727 22 672 b 109 635 73 622 96 621 b 109 683 121 648 122 670 b 104 688 107 684 105 686 b 103 688 103 688 104 688 b 103 688 103 688 103 688 b 100 694 102 690 101 692 b 98 697 99 695 99 696 b 99 694 97 699 98 698 b 95 707 97 695 96 704 b 94 713 95 707 94 711 b 94 714 94 713 94 713 b 95 742 93 723 94 733 b 95 743 95 743 95 743 b 95 743 95 743 95 743 b 96 750 95 745 96 748 b 99 765 97 755 98 760 b 117 818 104 783 110 801 b 117 818 117 818 117 818 b 119 823 118 820 119 822 b 124 833 121 826 122 830 b 130 847 126 838 128 843 b 118 894 138 863 135 885 z "},"’":{"ha":160,"x_min":0,"x_max":0,"o":"m 99 888 b 51 888 86 901 63 902 b 51 840 39 875 37 853 b 56 835 53 839 54 837 b 56 835 56 835 56 835 b 56 835 56 835 56 835 b 60 829 57 833 59 831 b 61 826 60 828 61 827 b 60 829 62 824 62 825 b 64 816 62 828 64 818 b 65 810 64 816 65 812 b 65 809 65 810 65 810 b 65 781 66 799 66 790 b 65 780 65 780 65 780 b 65 780 65 780 65 780 b 63 773 64 778 64 775 b 60 758 62 768 61 763 b 42 705 56 740 49 722 b 42 705 42 705 42 705 b 40 700 42 703 41 701 b 36 690 39 697 37 693 b 29 676 34 685 31 680 b 41 629 21 660 24 638 b 88 641 56 621 79 624 b 127 747 104 675 119 710 b 99 888 138 796 137 851 z "},"‚":{"ha":128,"x_min":0,"x_max":0,"o":"m 75 110 b 27 110 62 123 40 124 b 27 63 15 97 14 76 b 32 57 29 61 31 59 b 32 57 32 57 32 57 b 33 57 33 57 32 57 b 36 51 34 55 35 53 b 38 48 37 50 37 49 b 37 51 39 46 38 47 b 41 38 39 50 40 41 b 42 33 41 38 42 34 b 42 31 42 32 42 32 b 41 3 42 22 42 12 b 41 2 41 2 41 3 b 41 2 41 2 41 2 b 40 -5 40 0 40 -3 b 37 -20 39 -10 38 -15 b 19 -73 32 -38 26 -56 b 19 -73 19 -73 19 -73 b 17 -78 18 -75 17 -76 b 12 -88 15 -81 14 -85 b 5 -102 10 -93 8 -97 b 18 -149 -2 -118 0 -140 b 64 -136 33 -157 56 -154 b 104 -31 80 -102 95 -68 b 75 110 114 18 114 74 z "},"“":{"ha":283,"x_min":0,"x_max":0,"o":"m 118 894 b 72 882 103 902 80 899 b 32 776 56 848 40 813 b 61 635 22 727 22 672 b 109 635 73 622 96 621 b 109 683 121 648 122 670 b 104 688 107 684 105 686 b 103 688 103 688 104 688 b 103 688 103 688 103 688 b 100 694 102 690 101 692 b 98 697 99 695 99 696 b 99 694 97 699 98 698 b 95 707 97 695 96 705 b 94 713 95 707 94 711 b 94 714 94 713 94 713 b 95 742 93 724 94 733 b 95 743 95 743 95 743 b 95 743 95 743 95 743 b 96 751 95 746 96 748 b 99 765 97 756 98 760 b 117 818 104 783 110 801 b 117 819 117 818 117 819 b 119 823 118 820 119 822 b 124 833 121 826 122 830 b 130 847 126 838 128 843 b 118 894 138 863 135 885 z m 242 894 b 195 882 227 902 204 899 b 156 776 179 848 164 813 b 184 635 145 727 146 672 b 232 635 197 622 219 621 b 232 683 244 648 246 670 b 227 688 230 684 229 686 b 227 688 227 688 227 688 b 227 688 227 688 227 688 b 223 694 226 690 224 692 b 222 697 223 695 222 696 b 223 694 221 699 221 698 b 219 707 221 695 219 704 b 218 713 219 707 218 711 b 218 714 218 713 218 713 b 218 742 217 724 217 733 b 218 743 218 743 218 743 b 218 743 218 743 218 743 b 220 751 219 745 219 748 b 223 765 220 755 222 760 b 241 818 227 783 234 801 b 241 818 241 818 241 818 b 243 823 241 820 242 822 b 247 833 244 826 246 830 b 254 847 249 838 252 843 b 242 894 261 863 259 885 z "},"”":{"ha":283,"x_min":0,"x_max":0,"o":"m 51 888 b 51 840 39 875 37 853 b 56 835 53 839 54 837 b 56 835 56 835 56 835 b 56 835 56 835 56 835 b 60 829 57 833 59 831 b 61 826 60 828 61 827 b 60 829 62 824 62 825 b 64 816 62 828 64 818 b 65 810 64 816 65 812 b 65 809 65 810 65 810 b 65 781 66 799 66 790 b 65 780 65 780 65 780 b 65 780 65 780 65 780 b 63 773 64 778 64 775 b 60 758 62 768 61 763 b 42 705 56 740 49 722 b 42 705 42 705 42 705 b 40 700 42 703 41 701 b 36 690 39 697 37 693 b 29 676 34 685 31 680 b 41 629 21 660 24 638 b 88 641 56 621 79 624 b 127 747 104 675 119 710 b 99 888 138 796 137 851 b 51 888 86 901 63 902 z m 222 888 b 174 888 209 901 187 902 b 174 840 162 875 161 853 b 179 835 176 839 178 837 b 179 835 179 835 179 835 b 180 835 180 835 179 835 b 183 829 181 833 182 831 b 185 826 184 828 184 827 b 183 829 186 824 185 825 b 188 816 186 828 187 818 b 189 810 188 816 188 812 b 189 809 189 810 189 810 b 188 781 189 799 189 790 b 188 780 188 780 188 780 b 188 780 188 780 188 780 b 187 773 187 778 187 775 b 183 758 186 768 185 763 b 166 705 179 740 173 722 b 166 705 166 705 166 705 b 164 700 165 703 164 701 b 159 690 162 697 161 693 b 152 676 157 685 155 680 b 165 629 145 660 147 638 b 211 641 180 621 203 624 b 251 747 227 675 242 710 b 222 888 261 796 261 851 z "},"„":{"ha":251,"x_min":0,"x_max":0,"o":"m 27 110 b 27 63 15 97 14 76 b 32 57 29 61 31 59 b 32 57 32 57 32 57 b 33 57 33 57 32 57 b 36 51 34 55 35 53 b 38 48 37 50 37 49 b 36 51 39 46 38 47 b 40 38 39 50 40 41 b 42 33 41 38 42 34 b 42 31 42 32 42 32 b 41 3 42 22 42 12 b 41 2 41 3 41 3 b 41 2 41 2 41 2 b 40 -5 40 0 40 -3 b 36 -20 39 -10 38 -15 b 19 -73 32 -38 26 -56 b 19 -73 19 -73 19 -73 b 17 -78 18 -75 17 -76 b 12 -88 15 -81 14 -84 b 5 -102 10 -93 8 -97 b 18 -149 -2 -118 0 -139 b 64 -136 33 -156 56 -153 b 104 -31 80 -102 95 -68 b 75 110 114 18 114 74 b 27 110 62 123 40 124 z m 199 110 b 151 110 186 123 163 124 b 151 63 139 97 137 76 b 156 57 152 61 154 59 b 156 57 156 57 156 57 b 156 57 156 57 156 57 b 160 51 157 55 158 53 b 161 48 160 50 161 49 b 160 51 162 46 162 47 b 164 38 162 50 163 41 b 165 33 164 38 165 34 b 165 31 165 32 165 32 b 165 3 166 22 165 12 b 165 2 165 3 165 3 b 164 2 165 2 165 2 b 163 -5 164 0 164 -3 b 160 -20 162 -10 161 -15 b 142 -73 155 -38 149 -56 b 142 -73 142 -73 142 -73 b 140 -78 141 -75 141 -76 b 136 -88 139 -81 137 -84 b 129 -102 133 -93 131 -97 b 141 -149 121 -118 124 -139 b 187 -136 156 -156 179 -153 b 227 -31 203 -102 219 -68 b 199 110 238 18 237 74 z "},"†":{"ha":694,"x_min":0,"x_max":0,"o":"m 571 680 b 411 675 536 679 411 675 l 408 875 b 299 870 410 938 299 941 l 295 666 l 97 658 b 125 564 43 658 31 564 l 300 562 l 298 -99 b 400 -72 298 -159 400 -150 l 404 565 l 587 569 b 571 680 649 569 669 684 z "},"•":{"ha":204,"x_min":0,"x_max":0,"o":"m 180 448 b 122 506 174 476 150 500 b 23 408 62 521 9 468 b 82 349 30 379 53 356 b 180 448 142 335 195 388 z "},"‹":{"ha":322,"x_min":0,"x_max":0,"o":"m 281 218 b 139 378 247 255 139 378 b 138 402 132 385 132 395 l 279 582 b 283 627 289 594 293 614 b 246 649 271 641 258 649 b 218 632 234 649 224 640 l 28 423 b 34 358 16 408 19 372 l 233 144 b 246 139 237 140 241 139 b 292 171 261 139 283 151 b 281 218 298 187 295 203 z "},"›":{"ha":321,"x_min":0,"x_max":0,"o":"m 292 423 l 102 633 b 74 649 96 640 86 649 b 37 627 62 649 50 641 b 41 582 27 614 31 594 l 182 402 b 182 378 188 395 188 385 b 39 218 182 378 73 255 b 28 171 25 203 22 187 b 74 139 37 151 59 139 b 86 143 79 139 84 140 l 287 358 b 292 423 301 372 304 408 z "},"€":{"ha":654,"x_min":0,"x_max":0,"o":"m 542 134 b 286 332 444 104 306 143 l 515 331 b 511 388 550 331 566 388 l 283 386 b 287 479 283 415 284 447 l 515 478 b 511 537 550 478 566 537 l 296 535 b 405 722 312 612 344 686 b 554 741 460 754 538 744 b 620 781 591 736 611 750 b 575 852 627 806 618 841 b 278 796 452 881 343 842 b 128 532 189 734 148 634 l 40 531 b 56 481 5 531 0 481 l 120 480 b 112 399 116 453 114 426 b 112 385 112 395 112 390 l 40 385 b 56 334 5 385 0 334 l 112 333 b 202 110 117 251 143 170 b 416 15 259 52 337 24 b 596 40 473 10 546 10 b 542 134 657 75 609 154 z "}}}
